<svg xmlns="http://www.w3.org/2000/svg" xmlns:xlink="http://www.w3.org/1999/xlink" contentStyleType="text/css" data-diagram-type="DESCRIPTION" height="1602px" preserveAspectRatio="none" style="width:1452px;height:1602px;background:#FFFFFF;" version="1.1" viewBox="0 0 1452 1602" width="1452px" zoomAndPan="magnify"><defs/><g><!--entity CAM--><g class="entity" data-entity="CAM" data-source-line="6" data-uid="ent0002" id="entity_CAM"><rect fill="#FFE6E6" height="38.3203" rx="2.5" ry="2.5" style="stroke:#181818;stroke-width:0.5;" width="70.8867" x="714.94" y="34.5"/><text fill="#000000" font-family="sans-serif" font-size="14" lengthAdjust="spacing" textLength="50.8867" x="724.94" y="59.1016">Camera</text></g><!--entity IMU--><g class="entity" data-entity="IMU" data-source-line="7" data-uid="ent0003" id="entity_IMU"><rect fill="#FFE6E6" height="38.3203" rx="2.5" ry="2.5" style="stroke:#181818;stroke-width:0.5;" width="47.1318" x="1190.94" y="34.5"/><text fill="#000000" font-family="sans-serif" font-size="14" lengthAdjust="spacing" textLength="27.1318" x="1200.94" y="59.1016">IMU</text></g><!--entity ENC--><g class="entity" data-entity="ENC" data-source-line="8" data-uid="ent0004" id="entity_ENC"><rect fill="#FFE6E6" height="38.3203" rx="2.5" ry="2.5" style="stroke:#181818;stroke-width:0.5;" width="117.9727" x="983.44" y="34.5"/><text fill="#000000" font-family="sans-serif" font-size="14" lengthAdjust="spacing" textLength="97.9727" x="993.44" y="59.1016">Motor Encoder</text></g><!--entity VISION--><g class="entity" data-entity="VISION" data-source-line="10" data-uid="ent0005" id="entity_VISION"><rect fill="#E6F3FF" height="56.6406" rx="2.5" ry="2.5" style="stroke:#181818;stroke-width:0.5;" width="70.0186" x="715.44" y="197"/><text fill="#000000" font-family="sans-serif" font-size="14" lengthAdjust="spacing" textLength="39.8604" x="725.44" y="221.6016">Vision</text><text fill="#000000" font-family="sans-serif" font-size="14" lengthAdjust="spacing" textLength="50.0186" x="725.44" y="239.9219">Module</text></g><!--entity ODOM--><g class="entity" data-entity="ODOM" data-source-line="11" data-uid="ent0006" id="entity_ODOM"><rect fill="#E6F3FF" height="56.6406" rx="2.5" ry="2.5" style="stroke:#181818;stroke-width:0.5;" width="85.4268" x="1080.94" y="197"/><text fill="#000000" font-family="sans-serif" font-size="14" lengthAdjust="spacing" textLength="65.4268" x="1090.94" y="221.6016">Odometry</text><text fill="#000000" font-family="sans-serif" font-size="14" lengthAdjust="spacing" textLength="50.0186" x="1090.94" y="239.9219">Module</text></g><!--entity LOCAL--><g class="entity" data-entity="LOCAL" data-source-line="12" data-uid="ent0007" id="entity_LOCAL"><rect fill="#E6F3FF" height="56.6406" rx="2.5" ry="2.5" style="stroke:#181818;stroke-width:0.5;" width="98.5518" x="855.94" y="371"/><text fill="#000000" font-family="sans-serif" font-size="14" lengthAdjust="spacing" textLength="78.5518" x="865.94" y="395.6016">Localization</text><text fill="#000000" font-family="sans-serif" font-size="14" lengthAdjust="spacing" textLength="50.0186" x="865.94" y="413.9219">Module</text></g><!--entity MAP--><g class="entity" data-entity="MAP" data-source-line="14" data-uid="ent0008" id="entity_MAP"><rect fill="#FFF9E6" height="56.6406" rx="2.5" ry="2.5" style="stroke:#181818;stroke-width:0.5;" width="77.7227" x="452.44" y="524"/><text fill="#000000" font-family="sans-serif" font-size="14" lengthAdjust="spacing" textLength="57.7227" x="462.44" y="548.6016">Mapping</text><text fill="#000000" font-family="sans-serif" font-size="14" lengthAdjust="spacing" textLength="50.0186" x="462.44" y="566.9219">Module</text></g><!--entity EXPLORE--><g class="entity" data-entity="EXPLORE" data-source-line="15" data-uid="ent0009" id="entity_EXPLORE"><rect fill="#FFF9E6" height="56.6406" rx="2.5" ry="2.5" style="stroke:#181818;stroke-width:0.5;" width="94.5254" x="133.94" y="677"/><text fill="#000000" font-family="sans-serif" font-size="14" lengthAdjust="spacing" textLength="74.5254" x="143.94" y="701.6016">Exploration</text><text fill="#000000" font-family="sans-serif" font-size="14" lengthAdjust="spacing" textLength="50.0186" x="143.94" y="719.9219">Module</text></g><!--entity PATH--><g class="entity" data-entity="PATH" data-source-line="16" data-uid="ent0010" id="entity_PATH"><rect fill="#FFF9E6" height="56.6406" rx="2.5" ry="2.5" style="stroke:#181818;stroke-width:0.5;" width="110.4941" x="252.44" y="830"/><text fill="#000000" font-family="sans-serif" font-size="14" lengthAdjust="spacing" textLength="90.4941" x="262.44" y="854.6016">Path Planning</text><text fill="#000000" font-family="sans-serif" font-size="14" lengthAdjust="spacing" textLength="50.0186" x="262.44" y="872.9219">Module</text></g><!--entity FOLLOW--><g class="entity" data-entity="FOLLOW" data-source-line="18" data-uid="ent0011" id="entity_FOLLOW"><rect fill="#E6FFE6" height="56.6406" rx="2.5" ry="2.5" style="stroke:#181818;stroke-width:0.5;" width="116.4141" x="867.44" y="983"/><text fill="#000000" font-family="sans-serif" font-size="14" lengthAdjust="spacing" textLength="96.4141" x="877.44" y="1007.6016">Path Following</text><text fill="#000000" font-family="sans-serif" font-size="14" lengthAdjust="spacing" textLength="50.0186" x="877.44" y="1025.9219">Module</text></g><!--entity MOTION--><g class="entity" data-entity="MOTION" data-source-line="19" data-uid="ent0012" id="entity_MOTION"><rect fill="#E6FFE6" height="56.6406" rx="2.5" ry="2.5" style="stroke:#181818;stroke-width:0.5;" width="119.6133" x="946.44" y="1136"/><text fill="#000000" font-family="sans-serif" font-size="14" lengthAdjust="spacing" textLength="99.6133" x="956.44" y="1160.6016">Motion Control</text><text fill="#000000" font-family="sans-serif" font-size="14" lengthAdjust="spacing" textLength="50.0186" x="956.44" y="1178.9219">Module</text></g><!--entity STAB--><g class="entity" data-entity="STAB" data-source-line="20" data-uid="ent0013" id="entity_STAB"><rect fill="#E6FFE6" height="56.6406" rx="2.5" ry="2.5" style="stroke:#181818;stroke-width:0.5;" width="100.6709" x="1209.94" y="284"/><text fill="#000000" font-family="sans-serif" font-size="14" lengthAdjust="spacing" textLength="80.6709" x="1219.94" y="308.6016">Stabilization</text><text fill="#000000" font-family="sans-serif" font-size="14" lengthAdjust="spacing" textLength="50.0186" x="1219.94" y="326.9219">Module</text></g><!--entity STATE--><g class="entity" data-entity="STATE" data-source-line="22" data-uid="ent0014" id="entity_STATE"><rect fill="#F3E6FF" height="56.6406" rx="2.5" ry="2.5" style="stroke:#181818;stroke-width:0.5;" width="77.3945" x="16.94" y="524"/><text fill="#000000" font-family="sans-serif" font-size="14" lengthAdjust="spacing" textLength="33.5439" x="26.94" y="548.6016">State</text><text fill="#000000" font-family="sans-serif" font-size="14" lengthAdjust="spacing" textLength="57.3945" x="26.94" y="566.9219">Manager</text></g><!--entity MISSION--><g class="entity" data-entity="MISSION" data-source-line="23" data-uid="ent0015" id="entity_MISSION"><rect fill="#F3E6FF" height="56.6406" rx="2.5" ry="2.5" style="stroke:#181818;stroke-width:0.5;" width="86.2539" x="12.44" y="371"/><text fill="#000000" font-family="sans-serif" font-size="14" lengthAdjust="spacing" textLength="50.0322" x="22.44" y="395.6016">Mission</text><text fill="#000000" font-family="sans-serif" font-size="14" lengthAdjust="spacing" textLength="66.2539" x="22.44" y="413.9219">Controller</text></g><!--entity SAFETY--><g class="entity" data-entity="SAFETY" data-source-line="24" data-uid="ent0016" id="entity_SAFETY"><rect fill="#F3E6FF" height="56.6406" rx="2.5" ry="2.5" style="stroke:#181818;stroke-width:0.5;" width="70.0186" x="1051.44" y="524"/><text fill="#000000" font-family="sans-serif" font-size="14" lengthAdjust="spacing" textLength="39.874" x="1061.44" y="548.6016">Safety</text><text fill="#000000" font-family="sans-serif" font-size="14" lengthAdjust="spacing" textLength="50.0186" x="1061.44" y="566.9219">Module</text></g><!--entity MOTOR--><g class="entity" data-entity="MOTOR" data-source-line="26" data-uid="ent0017" id="entity_MOTOR"><rect fill="#FFE6E6" height="56.6406" rx="2.5" ry="2.5" style="stroke:#181818;stroke-width:0.5;" width="71.5361" x="1026.44" y="1289"/><text fill="#000000" font-family="sans-serif" font-size="14" lengthAdjust="spacing" textLength="51.5361" x="1036.44" y="1313.6016">Stepper</text><text fill="#000000" font-family="sans-serif" font-size="14" lengthAdjust="spacing" textLength="46.0332" x="1036.44" y="1331.9219">Motors</text></g><!--entity EVENT--><g class="entity" data-entity="EVENT" data-source-line="28" data-uid="ent0018" id="entity_EVENT"><rect fill="#E6E6E6" height="56.6406" rx="2.5" ry="2.5" style="stroke:#181818;stroke-width:0.5;" width="84.2168" x="571.44" y="677"/><text fill="#000000" font-family="sans-serif" font-size="14" lengthAdjust="spacing" textLength="55.7402" x="581.44" y="701.6016">Reactive</text><text fill="#000000" font-family="sans-serif" font-size="14" lengthAdjust="spacing" textLength="64.2168" x="581.44" y="719.9219">Event Bus</text></g><!--entity API--><g class="entity" data-entity="API" data-source-line="29" data-uid="ent0019" id="entity_API"><rect fill="#E6E6E6" height="56.6406" rx="2.5" ry="2.5" style="stroke:#181818;stroke-width:0.5;" width="91.8115" x="567.44" y="830"/><text fill="#000000" font-family="sans-serif" font-size="14" lengthAdjust="spacing" textLength="71.8115" x="577.44" y="854.6016">Monitoring</text><text fill="#000000" font-family="sans-serif" font-size="14" lengthAdjust="spacing" textLength="21.6631" x="577.44" y="872.9219">API</text></g><g class="entity" data-entity="N1" data-source-line="86" data-uid="ent0047" id="entity_N1"><path d="M1273.44,6 L1273.44,101.0586 L1445.0001,101.0586 L1445.0001,16 L1435.0001,6 L1273.44,6" fill="#FEFFDD" style="stroke:#181818;stroke-width:0.5;"/><path d="M1435.0001,6 L1435.0001,16 L1445.0001,16 L1435.0001,6" fill="#FEFFDD" style="stroke:#181818;stroke-width:1;"/><text fill="#000000" font-family="sans-serif" font-size="13" font-weight="bold" lengthAdjust="spacing" textLength="53.625" x="1279.44" y="24.5586">&#21046;&#24481;&#21608;&#26399;</text><text fill="#000000" font-family="sans-serif" font-size="13" lengthAdjust="spacing" textLength="104.8379" x="1279.44" y="41.5703">&#12539;&#30011;&#20687;&#20966;&#29702;: 30Hz</text><text fill="#000000" font-family="sans-serif" font-size="13" lengthAdjust="spacing" textLength="113.0264" x="1279.44" y="58.582">&#12539;&#20301;&#32622;&#25512;&#23450;: 100Hz</text><text fill="#000000" font-family="sans-serif" font-size="13" lengthAdjust="spacing" textLength="129.3843" x="1279.44" y="75.5938">&#12539;&#12514;&#12540;&#12479;&#12540;&#21046;&#24481;: 1kHz</text><text fill="#000000" font-family="sans-serif" font-size="13" lengthAdjust="spacing" textLength="150.5601" x="1279.44" y="92.6055">&#12539;&#32076;&#36335;&#35336;&#30011;: &#12452;&#12505;&#12531;&#12488;&#39366;&#21205;</text></g><!--link CAM to VISION--><g class="link" data-entity-1="CAM" data-entity-2="VISION" data-source-line="32" data-uid="lnk20" id="link_CAM_VISION"><path d="M750.44,72.69 C750.44,102.5 750.44,155.92 750.44,190.93" fill="none" id="CAM-to-VISION" style="stroke:#181818;stroke-width:1;"/><polygon fill="#181818" points="750.44,196.93,754.44,187.93,750.44,191.93,746.44,187.93,750.44,196.93" style="stroke:#181818;stroke-width:1;"/><text fill="#000000" font-family="sans-serif" font-size="13" lengthAdjust="spacing" textLength="65" x="751.44" y="145.5586">&#30011;&#20687;&#12487;&#12540;&#12479;</text><text fill="#000000" font-family="sans-serif" font-size="13" lengthAdjust="spacing" textLength="64.1431" x="751.8685" y="162.5703">(640x480)</text></g><!--link IMU to ODOM--><g class="link" data-entity-1="IMU" data-entity-2="ODOM" data-source-line="33" data-uid="lnk21" id="link_IMU_ODOM"><path d="M1190.8,65.88 C1168,78.31 1134.9,100.6 1120.44,131 C1110.68,151.53 1111.3795,171.6737 1115.0295,191.0537" fill="none" id="IMU-to-ODOM" style="stroke:#181818;stroke-width:1;"/><polygon fill="#181818" points="1116.14,196.95,1118.4051,187.3652,1115.2146,192.0364,1110.5433,188.8458,1116.14,196.95" style="stroke:#181818;stroke-width:1;"/><text fill="#000000" font-family="sans-serif" font-size="13" lengthAdjust="spacing" textLength="104" x="1121.44" y="145.5586">&#21152;&#36895;&#24230;&#12539;&#12472;&#12515;&#12452;&#12525;</text><text fill="#000000" font-family="sans-serif" font-size="13" lengthAdjust="spacing" textLength="49.1245" x="1148.8777" y="162.5703">(100Hz)</text></g><!--link ENC to ODOM--><g class="link" data-entity-1="ENC" data-entity-2="ODOM" data-source-line="34" data-uid="lnk22" id="link_ENC_ODOM"><path d="M1036.73,72.88 C1030.59,96.24 1023.67,137.1 1039.44,167 C1048.34,183.88 1059.4907,193.7381 1075.4107,202.9781" fill="none" id="ENC-to-ODOM" style="stroke:#181818;stroke-width:1;"/><polygon fill="#181818" points="1080.6,205.99,1074.824,198.0127,1076.2756,203.4801,1070.8082,204.9317,1080.6,205.99" style="stroke:#181818;stroke-width:1;"/><text fill="#000000" font-family="sans-serif" font-size="13" lengthAdjust="spacing" textLength="39" x="1040.44" y="154.0586">&#22238;&#36578;&#25968;</text></g><!--link VISION to LOCAL--><g class="link" data-entity-1="VISION" data-entity-2="LOCAL" data-source-line="36" data-uid="lnk23" id="link_VISION_LOCAL"><path d="M775.34,254.13 C804.27,286.23 847.6827,334.4134 876.5827,366.4734" fill="none" id="VISION-to-LOCAL" style="stroke:#181818;stroke-width:1;"/><polygon fill="#181818" points="880.6,370.93,877.5451,361.5669,877.2522,367.2162,871.603,366.9233,880.6,370.93" style="stroke:#181818;stroke-width:1;"/><text fill="#000000" font-family="sans-serif" font-size="13" lengthAdjust="spacing" textLength="65" x="855.7691" y="309.0586">&#22721;&#26908;&#20986;&#24773;&#22577;</text><text fill="#000000" font-family="sans-serif" font-size="13" lengthAdjust="spacing" textLength="73.6582" x="851.44" y="326.0703">(&#36317;&#38626;&#12539;&#35282;&#24230;)</text></g><!--link ODOM to LOCAL--><g class="link" data-entity-1="ODOM" data-entity-2="LOCAL" data-source-line="37" data-uid="lnk24" id="link_ODOM_LOCAL"><path d="M1088.41,254.13 C1047.73,286.23 985.7307,335.1539 945.0907,367.2139" fill="none" id="ODOM-to-LOCAL" style="stroke:#181818;stroke-width:1;"/><polygon fill="#181818" points="940.38,370.93,949.9234,368.4962,944.3056,367.8332,944.9686,362.2154,940.38,370.93" style="stroke:#181818;stroke-width:1;"/><text fill="#000000" font-family="sans-serif" font-size="13" lengthAdjust="spacing" textLength="52" x="1047.44" y="309.0586">&#25512;&#23450;&#20301;&#32622;</text><text fill="#000000" font-family="sans-serif" font-size="13" lengthAdjust="spacing" textLength="48.0835" x="1049.3983" y="326.0703">(x, y, &#952;)</text></g><!--link LOCAL to MAP--><g class="link" data-entity-1="LOCAL" data-entity-2="MAP" data-source-line="40" data-uid="lnk25" id="link_LOCAL_MAP"><path d="M855.78,415.5 C827.89,425.21 793.21,439.5 765.44,458 C746.61,470.54 749.17,482.93 729.44,494 C665.49,529.87 585.6283,542.8936 536.4383,547.9736" fill="none" id="LOCAL-to-MAP" style="stroke:#181818;stroke-width:1;"/><polygon fill="#181818" points="530.47,548.59,539.8333,551.6443,535.4435,548.0764,539.0115,543.6866,530.47,548.59" style="stroke:#181818;stroke-width:1;"/><text fill="#000000" font-family="sans-serif" font-size="13" lengthAdjust="spacing" textLength="91" x="766.44" y="472.5586">&#29694;&#22312;&#20301;&#32622;&#12539;&#23039;&#21218;</text><text fill="#000000" font-family="sans-serif" font-size="13" lengthAdjust="spacing" textLength="48.0835" x="787.8983" y="489.5703">(x, y, &#952;)</text></g><!--link VISION to MAP--><g class="link" data-entity-1="VISION" data-entity-2="MAP" data-source-line="41" data-uid="lnk26" id="link_VISION_MAP"><path d="M715.33,233.91 C683.16,242.03 635.5,257.57 601.44,284 C523.89,344.19 501.3464,462.4929 494.6864,517.8729" fill="none" id="VISION-to-MAP" style="stroke:#181818;stroke-width:1;"/><polygon fill="#181818" points="493.97,523.83,499.016,515.372,494.567,518.8658,491.0732,514.4168,493.97,523.83" style="stroke:#181818;stroke-width:1;"/><text fill="#000000" font-family="sans-serif" font-size="13" lengthAdjust="spacing" textLength="39" x="546.2691" y="396.0586">&#22721;&#24773;&#22577;</text><text fill="#000000" font-family="sans-serif" font-size="13" lengthAdjust="spacing" textLength="60.6582" x="535.44" y="413.0703">(&#21069;&#24460;&#24038;&#21491;)</text></g><!--link MAP to EXPLORE--><g class="link" data-entity-1="MAP" data-entity-2="EXPLORE" data-source-line="42" data-uid="lnk27" id="link_MAP_EXPLORE"><path d="M452.17,554.7 C376.06,557.94 212.87,569.66 178.44,611 C163.47,628.97 164.7788,650.5034 170.1088,670.9834" fill="none" id="MAP-to-EXPLORE" style="stroke:#181818;stroke-width:1;"/><polygon fill="#181818" points="171.62,676.79,173.2243,667.0727,170.3607,671.9512,165.4822,669.0876,171.62,676.79" style="stroke:#181818;stroke-width:1;"/><text fill="#000000" font-family="sans-serif" font-size="13" lengthAdjust="spacing" textLength="65" x="183.8231" y="625.5586">&#36855;&#36335;&#12510;&#12483;&#12503;</text><text fill="#000000" font-family="sans-serif" font-size="13" lengthAdjust="spacing" textLength="73.7661" x="179.44" y="642.5703">(16x16&#37197;&#21015;)</text></g><!--link MAP to PATH--><g class="link" data-entity-1="MAP" data-entity-2="PATH" data-source-line="43" data-uid="lnk28" id="link_MAP_PATH"><path d="M474.71,581.24 C447.17,626.89 390.55,720.69 342.44,800 C336.56,809.69 333.2273,815.1633 327.4873,824.6033" fill="none" id="MAP-to-PATH" style="stroke:#181818;stroke-width:1;"/><polygon fill="#181818" points="324.37,829.73,332.4637,824.1182,326.9677,825.4578,325.6281,819.9618,324.37,829.73" style="stroke:#181818;stroke-width:1;"/><text fill="#000000" font-family="sans-serif" font-size="13" lengthAdjust="spacing" textLength="65" x="420.8231" y="702.0586">&#36855;&#36335;&#12510;&#12483;&#12503;</text><text fill="#000000" font-family="sans-serif" font-size="13" lengthAdjust="spacing" textLength="73.7661" x="416.44" y="719.0703">(16x16&#37197;&#21015;)</text></g><!--link EXPLORE to PATH--><g class="link" data-entity-1="EXPLORE" data-entity-2="PATH" data-source-line="44" data-uid="lnk29" id="link_EXPLORE_PATH"><path d="M204.55,734.2 C227.28,761.44 257.9449,798.194 280.6349,825.374" fill="none" id="EXPLORE-to-PATH" style="stroke:#181818;stroke-width:1;"/><polygon fill="#181818" points="284.48,829.98,281.783,820.5076,281.2757,826.1417,275.6417,825.6344,284.48,829.98" style="stroke:#181818;stroke-width:1;"/><text fill="#000000" font-family="sans-serif" font-size="13" lengthAdjust="spacing" textLength="52" x="271.2691" y="778.5586">&#25506;&#32034;&#30446;&#27161;</text><text fill="#000000" font-family="sans-serif" font-size="13" lengthAdjust="spacing" textLength="73.6582" x="260.44" y="795.5703">(&#12468;&#12540;&#12523;&#24231;&#27161;)</text></g><!--link PATH to FOLLOW--><g class="link" data-entity-1="PATH" data-entity-2="FOLLOW" data-source-line="47" data-uid="lnk30" id="link_PATH_FOLLOW"><path d="M362.56,872.97 C478.82,901.37 742.4115,965.7757 861.3715,994.8457" fill="none" id="PATH-to-FOLLOW" style="stroke:#181818;stroke-width:1;"/><polygon fill="#181818" points="867.2,996.27,859.4068,990.2479,862.3429,995.0831,857.5077,998.0192,867.2,996.27" style="stroke:#181818;stroke-width:1;"/><text fill="#000000" font-family="sans-serif" font-size="13" lengthAdjust="spacing" textLength="52" x="690.44" y="931.5586">&#30446;&#27161;&#32076;&#36335;</text><text fill="#000000" font-family="sans-serif" font-size="13" lengthAdjust="spacing" textLength="47.6582" x="692.6109" y="948.5703">(&#24231;&#27161;&#21015;)</text></g><!--link LOCAL to FOLLOW--><g class="link" data-entity-1="LOCAL" data-entity-2="FOLLOW" data-source-line="48" data-uid="lnk31" id="link_LOCAL_FOLLOW"><path d="M911.33,428.19 C917.23,458.36 925.44,508.13 925.44,551.5 C925.44,551.5 925.44,551.5 925.44,859.5 C925.44,902.62 925.44,946.68 925.44,976.95" fill="none" id="LOCAL-to-FOLLOW" style="stroke:#181818;stroke-width:1;"/><polygon fill="#181818" points="925.44,982.95,929.44,973.95,925.44,977.95,921.44,973.95,925.44,982.95" style="stroke:#181818;stroke-width:1;"/><text fill="#000000" font-family="sans-serif" font-size="13" lengthAdjust="spacing" textLength="91" x="926.44" y="702.0586">&#29694;&#22312;&#20301;&#32622;&#12539;&#23039;&#21218;</text><text fill="#000000" font-family="sans-serif" font-size="13" lengthAdjust="spacing" textLength="48.0835" x="947.8983" y="719.0703">(x, y, &#952;)</text></g><!--link FOLLOW to MOTION--><g class="link" data-entity-1="FOLLOW" data-entity-2="MOTION" data-source-line="49" data-uid="lnk32" id="link_FOLLOW_MOTION"><path d="M931.57,1040.3 C936.54,1059.56 944.67,1085.35 956.44,1106 C962.47,1116.57 966.6397,1122.4803 974.6097,1131.4703" fill="none" id="FOLLOW-to-MOTION" style="stroke:#181818;stroke-width:1;"/><polygon fill="#181818" points="978.59,1135.96,975.6127,1126.5719,975.2731,1132.2186,969.6264,1131.879,978.59,1135.96" style="stroke:#181818;stroke-width:1;"/><text fill="#000000" font-family="sans-serif" font-size="13" lengthAdjust="spacing" textLength="52" x="963.7654" y="1084.5586">&#30446;&#27161;&#36895;&#24230;</text><text fill="#000000" font-family="sans-serif" font-size="13" lengthAdjust="spacing" textLength="64.6509" x="957.44" y="1101.5703">(Vx, Vy, &#969;)</text></g><!--link IMU to STAB--><g class="link" data-entity-1="IMU" data-entity-2="STAB" data-source-line="50" data-uid="lnk33" id="link_IMU_STAB"><path d="M1218.47,72.7 C1221.84,88.17 1226.69,111 1230.44,131 C1240.57,185.01 1249.7887,242.5311 1255.2987,277.9911" fill="none" id="IMU-to-STAB" style="stroke:#181818;stroke-width:1;"/><polygon fill="#181818" points="1256.22,283.92,1258.7907,274.4125,1255.4523,278.9793,1250.8855,275.6409,1256.22,283.92" style="stroke:#181818;stroke-width:1;"/><text fill="#000000" font-family="sans-serif" font-size="13" lengthAdjust="spacing" textLength="65" x="1253.1314" y="145.5586">&#23039;&#21218;&#12487;&#12540;&#12479;</text><text fill="#000000" font-family="sans-serif" font-size="13" lengthAdjust="spacing" textLength="96.3828" x="1237.44" y="162.5703">(roll, pitch, yaw)</text></g><!--link STAB to MOTION--><g class="link" data-entity-1="STAB" data-entity-2="MOTION" data-source-line="51" data-uid="lnk34" id="link_STAB_MOTION"><path d="M1261.91,341.06 C1265.76,432.42 1269.95,732.13 1175.44,953 C1143.27,1028.19 1080.7836,1094.5513 1041.4936,1131.8113" fill="none" id="STAB-to-MOTION" style="stroke:#181818;stroke-width:1;"/><polygon fill="#181818" points="1037.14,1135.94,1046.4229,1132.6494,1040.768,1132.4994,1040.918,1126.8446,1037.14,1135.94" style="stroke:#181818;stroke-width:1;"/><text fill="#000000" font-family="sans-serif" font-size="13" lengthAdjust="spacing" textLength="39" x="1246.44" y="702.0586">&#35036;&#27491;&#20516;</text><text fill="#000000" font-family="sans-serif" font-size="13" lengthAdjust="spacing" textLength="34.6582" x="1248.6109" y="719.0703">(&#916;&#969;)</text></g><!--link MOTION to MOTOR--><g class="link" data-entity-1="MOTION" data-entity-2="MOTOR" data-source-line="52" data-uid="lnk35" id="link_MOTION_MOTOR"><path d="M1004.1,1193.13 C1003.51,1212.31 1004.83,1238.07 1013.44,1259 C1017.88,1269.8 1021.2306,1275.4957 1028.8306,1284.2657" fill="none" id="MOTION-to-MOTOR" style="stroke:#181818;stroke-width:1;"/><polygon fill="#181818" points="1032.76,1288.8,1029.8888,1279.379,1029.4855,1285.0214,1023.8431,1284.6181,1032.76,1288.8" style="stroke:#181818;stroke-width:1;"/><text fill="#000000" font-family="sans-serif" font-size="13" lengthAdjust="spacing" textLength="78" x="1014.44" y="1237.5586">&#12514;&#12540;&#12479;&#12540;&#25351;&#20196;</text><text fill="#000000" font-family="sans-serif" font-size="13" lengthAdjust="spacing" textLength="68.8467" x="1019.0167" y="1254.5703">(3&#36600;&#12497;&#12523;&#12473;)</text></g><!--link MISSION to STATE--><g class="link" data-entity-1="MISSION" data-entity-2="STATE" data-source-line="55" data-uid="lnk36" id="link_MISSION_STATE"><path d="M55.44,428.2 C55.44,455.44 55.44,490.8 55.44,517.98" fill="none" id="MISSION-to-STATE" style="stroke:#181818;stroke-width:1;"/><polygon fill="#181818" points="55.44,523.98,59.44,514.98,55.44,518.98,51.44,514.98,55.44,523.98" style="stroke:#181818;stroke-width:1;"/><text fill="#000000" font-family="sans-serif" font-size="13" lengthAdjust="spacing" textLength="78" x="56.44" y="472.5586">&#29366;&#24907;&#36983;&#31227;&#25351;&#20196;</text><text fill="#000000" font-family="sans-serif" font-size="13" lengthAdjust="spacing" textLength="67.1582" x="61.8609" y="489.5703">(&#25506;&#32034;/&#26368;&#30701;)</text></g><!--link STATE to EXPLORE--><g class="link" data-entity-1="STATE" data-entity-2="EXPLORE" data-source-line="56" data-uid="lnk37" id="link_STATE_EXPLORE"><path d="M46.72,581.1 C42.18,601 39.88,627.66 52.44,647 C61.99,661.71 95.4578,675.935 128.1478,687.395" fill="none" id="STATE-to-EXPLORE" style="stroke:#181818;stroke-width:1;"/><polygon fill="#181818" points="133.81,689.38,126.6401,682.6278,129.0915,687.7259,123.9935,690.1773,133.81,689.38" style="stroke:#181818;stroke-width:1;"/><text fill="#000000" font-family="sans-serif" font-size="13" lengthAdjust="spacing" textLength="84.5" x="53.44" y="634.0586">&#25506;&#32034;&#38283;&#22987;/&#20572;&#27490;</text></g><!--link STATE to PATH--><g class="link" data-entity-1="STATE" data-entity-2="PATH" data-source-line="57" data-uid="lnk38" id="link_STATE_PATH"><path d="M42.43,581.11 C26.74,618.87 6,687.27 36.44,734 C84.34,807.54 181.9729,836.7535 246.3029,848.8235" fill="none" id="STATE-to-PATH" style="stroke:#181818;stroke-width:1;"/><polygon fill="#181818" points="252.2,849.93,244.092,844.3389,247.2858,849.008,242.6167,852.2017,252.2,849.93" style="stroke:#181818;stroke-width:1;"/><text fill="#000000" font-family="sans-serif" font-size="13" lengthAdjust="spacing" textLength="78" x="37.44" y="710.5586">&#26368;&#30701;&#32076;&#36335;&#35201;&#27714;</text></g><!--link LOCAL to SAFETY--><g class="link" data-entity-1="LOCAL" data-entity-2="SAFETY" data-source-line="60" data-uid="lnk39" id="link_LOCAL_SAFETY"><path d="M923.32,428.34 C937.17,448.36 957.76,475.06 980.44,494 C1001.81,511.85 1024.151,524.1368 1045.901,534.2668" fill="none" id="LOCAL-to-SAFETY" style="stroke:#181818;stroke-width:1;stroke-dasharray:7,7;"/><polygon fill="#181818" points="1051.34,536.8,1044.8703,529.3742,1046.8075,534.689,1041.4927,536.6262,1051.34,536.8" style="stroke:#181818;stroke-width:1;"/><text fill="#000000" font-family="sans-serif" font-size="13" lengthAdjust="spacing" textLength="78" x="981.44" y="481.0586">&#20301;&#32622;&#30064;&#24120;&#26908;&#30693;</text></g><!--link VISION to SAFETY--><g class="link" data-entity-1="VISION" data-entity-2="SAFETY" data-source-line="61" data-uid="lnk40" id="link_VISION_SAFETY"><path d="M785.65,231 C824.74,237.4 888.29,252.11 933.44,284 C1012.51,339.85 1023.37,370.35 1064.44,458 C1074.28,478.99 1078.9617,498.827 1082.0617,517.987" fill="none" id="VISION-to-SAFETY" style="stroke:#181818;stroke-width:1;stroke-dasharray:7,7;"/><polygon fill="#181818" points="1083.02,523.91,1085.5312,514.3867,1082.2214,518.9742,1077.6339,515.6644,1083.02,523.91" style="stroke:#181818;stroke-width:1;"/><text fill="#000000" font-family="sans-serif" font-size="13" lengthAdjust="spacing" textLength="78" x="1049.44" y="404.5586">&#12475;&#12531;&#12469;&#12540;&#30064;&#24120;</text></g><!--link SAFETY to MOTOR--><g class="link" data-entity-1="SAFETY" data-entity-2="MOTOR" data-source-line="62" data-uid="lnk41" id="link_SAFETY_MOTOR"><path d="M1096.25,581.21 C1105.98,611.2 1119.44,660.63 1119.44,704.5 C1119.44,704.5 1119.44,704.5 1119.44,1165.5 C1119.44,1208.19 1113.63,1219.5 1097.44,1259 C1093.27,1269.16 1090.624,1274.5283 1084.914,1283.6883" fill="none" id="SAFETY-to-MOTOR" style="stroke:#181818;stroke-width:1;stroke-dasharray:7,7;"/><polygon fill="#181818" points="1081.74,1288.78,1089.8955,1283.2584,1084.385,1284.5369,1083.1065,1279.0264,1081.74,1288.78" style="stroke:#181818;stroke-width:1;"/><text fill="#000000" font-family="sans-serif" font-size="13" lengthAdjust="spacing" textLength="52" x="1120.44" y="940.0586">&#32202;&#24613;&#20572;&#27490;</text></g><!--link VISION to EVENT--><g class="link" data-entity-1="VISION" data-entity-2="EVENT" data-source-line="65" data-uid="lnk42" id="link_VISION_EVENT"><path d="M728.74,254.04 C697.61,295.47 641.71,377.56 620.44,458 C598.97,539.21 624.03,563.12 619.44,647 C618.91,656.72 618.5715,661.3655 617.5415,670.7955" fill="none" id="VISION-to-EVENT" style="stroke:#181818;stroke-width:1;stroke-dasharray:7,7;"/><polygon fill="#181818" points="616.89,676.76,621.8436,668.2475,617.4329,671.7896,613.8909,667.3789,616.89,676.76" style="stroke:#181818;stroke-width:1;"/><text fill="#000000" font-family="sans-serif" font-size="13" lengthAdjust="spacing" textLength="44.9541" x="648.7921" y="472.5586">publish</text><text fill="#000000" font-family="sans-serif" font-size="13" lengthAdjust="spacing" textLength="99.6582" x="621.44" y="489.5703">(&#22721;&#26908;&#20986;&#12452;&#12505;&#12531;&#12488;)</text></g><!--link LOCAL to EVENT--><g class="link" data-entity-1="LOCAL" data-entity-2="EVENT" data-source-line="66" data-uid="lnk43" id="link_LOCAL_EVENT"><path d="M898.7,428.4 C892.43,448.98 881.17,476.36 862.44,494 C835.71,519.19 815.95,503.55 785.44,524 C781.13,526.89 690.6465,622.6149 643.6265,672.4749" fill="none" id="LOCAL-to-EVENT" style="stroke:#181818;stroke-width:1;stroke-dasharray:7,7;"/><polygon fill="#181818" points="639.51,676.84,648.5948,673.0366,642.9404,673.2024,642.7747,667.548,639.51,676.84" style="stroke:#181818;stroke-width:1;"/><text fill="#000000" font-family="sans-serif" font-size="13" lengthAdjust="spacing" textLength="44.9541" x="820.2921" y="549.0586">publish</text><text fill="#000000" font-family="sans-serif" font-size="13" lengthAdjust="spacing" textLength="112.6582" x="786.44" y="566.0703">(&#20301;&#32622;&#26356;&#26032;&#12452;&#12505;&#12531;&#12488;)</text></g><!--link MAP to EVENT--><g class="link" data-entity-1="MAP" data-entity-2="EVENT" data-source-line="67" data-uid="lnk44" id="link_MAP_EVENT"><path d="M482.78,581.06 C478.28,600.94 476,627.58 488.44,647 C506.61,675.36 536.8776,688.4315 565.6176,695.7915" fill="none" id="MAP-to-EVENT" style="stroke:#181818;stroke-width:1;stroke-dasharray:7,7;"/><polygon fill="#181818" points="571.43,697.28,563.7037,691.1723,566.5863,696.0396,561.719,698.9222,571.43,697.28" style="stroke:#181818;stroke-width:1;"/><text fill="#000000" font-family="sans-serif" font-size="13" lengthAdjust="spacing" textLength="44.9541" x="529.7921" y="625.5586">publish</text><text fill="#000000" font-family="sans-serif" font-size="13" lengthAdjust="spacing" textLength="125.6582" x="489.44" y="642.5703">(&#12510;&#12483;&#12503;&#26356;&#26032;&#12452;&#12505;&#12531;&#12488;)</text></g><!--link STATE to EVENT--><g class="link" data-entity-1="STATE" data-entity-2="EVENT" data-source-line="68" data-uid="lnk45" id="link_STATE_EVENT"><path d="M94.02,563.64 C134.85,574.57 201.04,592.84 257.44,611 C302.4,625.47 311.86,634.58 357.44,647 C426.82,665.91 446.44,660.51 516.44,677 C534.5,681.25 548.4684,685.0256 565.3984,689.9456" fill="none" id="STATE-to-EVENT" style="stroke:#181818;stroke-width:1;stroke-dasharray:7,7;"/><polygon fill="#181818" points="571.16,691.62,563.6338,685.2673,566.3586,690.2247,561.4013,692.9495,571.16,691.62" style="stroke:#181818;stroke-width:1;"/><text fill="#000000" font-family="sans-serif" font-size="13" lengthAdjust="spacing" textLength="44.9541" x="392.2921" y="625.5586">publish</text><text fill="#000000" font-family="sans-serif" font-size="13" lengthAdjust="spacing" textLength="112.6582" x="358.44" y="642.5703">(&#29366;&#24907;&#22793;&#26356;&#12452;&#12505;&#12531;&#12488;)</text></g><!--link EVENT to API--><g class="link" data-entity-1="EVENT" data-entity-2="API" data-source-line="69" data-uid="lnk46" id="link_EVENT_API"><path d="M613.44,734.2 C613.44,761.44 613.44,796.8 613.44,823.98" fill="none" id="EVENT-to-API" style="stroke:#181818;stroke-width:1;stroke-dasharray:7,7;"/><polygon fill="#181818" points="613.44,829.98,617.44,820.98,613.44,824.98,609.44,820.98,613.44,829.98" style="stroke:#181818;stroke-width:1;"/><text fill="#000000" font-family="sans-serif" font-size="13" lengthAdjust="spacing" textLength="58.8745" x="621.8318" y="778.5586">subscribe</text><text fill="#000000" font-family="sans-serif" font-size="13" lengthAdjust="spacing" textLength="73.6582" x="614.44" y="795.5703">(&#20840;&#12452;&#12505;&#12531;&#12488;)</text></g><g class="legend" data-source-line="71"><rect fill="none" height="219.5234" rx="7.5" ry="7.5" style="stroke:#000000;stroke-width:1;" width="221.8594" x="1204.1407" y="1362.6406"/><text fill="#000000" font-family="sans-serif" font-size="14" font-weight="bold" lengthAdjust="spacing" textLength="28.875" x="1212.8047" y="1384.2422">&#32218;&#31278;</text><text fill="#000000" font-family="sans-serif" font-size="14" font-weight="bold" lengthAdjust="spacing" textLength="28.875" x="1268.0118" y="1384.2422">&#24847;&#21619;</text><text fill="#000000" font-family="sans-serif" font-size="14" lengthAdjust="spacing" textLength="45.6641" x="1212.8047" y="1402.5625">&#23455;&#32218; &#8594;</text><text fill="#000000" font-family="sans-serif" font-size="14" lengthAdjust="spacing" textLength="149.3242" x="1268.0118" y="1402.5625">&#20027;&#35201;&#12487;&#12540;&#12479;&#12501;&#12525;&#12540;(&#21516;&#26399;)</text><text fill="#000000" font-family="sans-serif" font-size="14" lengthAdjust="spacing" textLength="47.8789" x="1212.8047" y="1420.8828">&#28857;&#32218; ..&gt;</text><text fill="#000000" font-family="sans-serif" font-size="14" lengthAdjust="spacing" textLength="135.3242" x="1268.0118" y="1420.8828">&#12452;&#12505;&#12531;&#12488;&#37197;&#20449;(&#38750;&#21516;&#26399;)</text><line style="stroke:#000000;stroke-width:1;" x1="1209.1407" x2="1421.0001" y1="1369.6406" y2="1369.6406"/><line style="stroke:#000000;stroke-width:1;" x1="1209.1407" x2="1421.0001" y1="1387.9609" y2="1387.9609"/><line style="stroke:#000000;stroke-width:1;" x1="1209.1407" x2="1421.0001" y1="1406.2813" y2="1406.2813"/><line style="stroke:#000000;stroke-width:1;" x1="1209.1407" x2="1421.0001" y1="1424.6016" y2="1424.6016"/><line style="stroke:#000000;stroke-width:1;" x1="1209.1407" x2="1209.1407" y1="1369.6406" y2="1424.6016"/><line style="stroke:#000000;stroke-width:1;" x1="1264.3477" x2="1264.3477" y1="1369.6406" y2="1424.6016"/><line style="stroke:#000000;stroke-width:1;" x1="1421.0001" x2="1421.0001" y1="1369.6406" y2="1424.6016"/><text fill="#000000" font-family="sans-serif" font-size="14" lengthAdjust="spacing" textLength="3.7803" x="1209.1407" y="1441.2031">&#160;</text><text fill="#000000" font-family="sans-serif" font-size="14" font-weight="bold" lengthAdjust="spacing" textLength="14.4375" x="1212.8047" y="1461.5234">&#33394;</text><text fill="#000000" font-family="sans-serif" font-size="14" font-weight="bold" lengthAdjust="spacing" textLength="57.75" x="1234.5704" y="1461.5234">&#12524;&#12452;&#12516;&#12540;</text><rect fill="#FFE6E6" height="18.3203" style="stroke:none;stroke-width:1;" width="21.7656" x="1209.1407" y="1465.2422"/><text fill="#000000" font-family="sans-serif" font-size="14" lengthAdjust="spacing" textLength="3.7803" x="1209.1407" y="1479.8438">&#160;</text><text fill="#000000" font-family="sans-serif" font-size="14" lengthAdjust="spacing" textLength="63.4854" x="1234.5704" y="1479.8438">Hardware</text><rect fill="#E6F3FF" height="18.3203" style="stroke:none;stroke-width:1;" width="21.7656" x="1209.1407" y="1483.5625"/><text fill="#000000" font-family="sans-serif" font-size="14" lengthAdjust="spacing" textLength="3.7803" x="1209.1407" y="1498.1641">&#160;</text><text fill="#000000" font-family="sans-serif" font-size="14" lengthAdjust="spacing" textLength="51.085" x="1234.5704" y="1498.1641">Sensing</text><rect fill="#FFF9E6" height="18.3203" style="stroke:none;stroke-width:1;" width="21.7656" x="1209.1407" y="1501.8828"/><text fill="#000000" font-family="sans-serif" font-size="14" lengthAdjust="spacing" textLength="3.7803" x="1209.1407" y="1516.4844">&#160;</text><text fill="#000000" font-family="sans-serif" font-size="14" lengthAdjust="spacing" textLength="57.0938" x="1234.5704" y="1516.4844">Planning</text><rect fill="#E6FFE6" height="18.3203" style="stroke:none;stroke-width:1;" width="21.7656" x="1209.1407" y="1520.2031"/><text fill="#000000" font-family="sans-serif" font-size="14" lengthAdjust="spacing" textLength="3.7803" x="1209.1407" y="1534.8047">&#160;</text><text fill="#000000" font-family="sans-serif" font-size="14" lengthAdjust="spacing" textLength="49.3281" x="1234.5704" y="1534.8047">Control</text><rect fill="#F3E6FF" height="18.3203" style="stroke:none;stroke-width:1;" width="21.7656" x="1209.1407" y="1538.5234"/><text fill="#000000" font-family="sans-serif" font-size="14" lengthAdjust="spacing" textLength="3.7803" x="1209.1407" y="1553.125">&#160;</text><text fill="#000000" font-family="sans-serif" font-size="14" lengthAdjust="spacing" textLength="57.1143" x="1234.5704" y="1553.125">Decision</text><rect fill="#E6E6E6" height="18.3203" style="stroke:none;stroke-width:1;" width="21.7656" x="1209.1407" y="1556.8438"/><text fill="#000000" font-family="sans-serif" font-size="14" lengthAdjust="spacing" textLength="3.7803" x="1209.1407" y="1571.4453">&#160;</text><text fill="#000000" font-family="sans-serif" font-size="14" lengthAdjust="spacing" textLength="72.4609" x="1234.5704" y="1571.4453">Framework</text><line style="stroke:#000000;stroke-width:1;" x1="1209.1407" x2="1310.6954" y1="1446.9219" y2="1446.9219"/><line style="stroke:#000000;stroke-width:1;" x1="1209.1407" x2="1310.6954" y1="1465.2422" y2="1465.2422"/><line style="stroke:#000000;stroke-width:1;" x1="1209.1407" x2="1310.6954" y1="1483.5625" y2="1483.5625"/><line style="stroke:#000000;stroke-width:1;" x1="1209.1407" x2="1310.6954" y1="1501.8828" y2="1501.8828"/><line style="stroke:#000000;stroke-width:1;" x1="1209.1407" x2="1310.6954" y1="1520.2031" y2="1520.2031"/><line style="stroke:#000000;stroke-width:1;" x1="1209.1407" x2="1310.6954" y1="1538.5234" y2="1538.5234"/><line style="stroke:#000000;stroke-width:1;" x1="1209.1407" x2="1310.6954" y1="1556.8438" y2="1556.8438"/><line style="stroke:#000000;stroke-width:1;" x1="1209.1407" x2="1310.6954" y1="1575.1641" y2="1575.1641"/><line style="stroke:#000000;stroke-width:1;" x1="1209.1407" x2="1209.1407" y1="1446.9219" y2="1575.1641"/><line style="stroke:#000000;stroke-width:1;" x1="1230.9063" x2="1230.9063" y1="1446.9219" y2="1575.1641"/><line style="stroke:#000000;stroke-width:1;" x1="1310.6954" x2="1310.6954" y1="1446.9219" y2="1575.1641"/></g><!--SRC=[XLPjJzjM5FxkNt7LVXX1q8Aeq1PjbTBK4KW9GIHZczGl9d718jYHOmfKV81ul4CfLMdLGg4Db4JQO7JGXZOj_8FsFynSE_aNE_TUsx59f2A4Wy_pFEVSytQJ6vNahA0AOsX8I8qEgygud0uh6KL5roFqXykvY9GobbLaKTOIsbH6HAgOqWHvE2Dot0yexDXod0j3ryB2cAWArv2GG-5GZ4ZotNot5z4R-vMQuTdC75Cq28MNKqfQL2cGxmkxG2zoKCf9YdnFZYdfyOn8eOEzYTvu7xhETqUwu20US3ojZ8cQEkM3n-_6Oyt0KIKbPAI7WdPLFneFXw8kmnUsaCrAyh0F7Glrqvp-v3yXFvc5R3UAyx_tH-C3V3DAlw2DeFwC8CjNVVI7aZqkeu4IKJ8PPU8g9nAFHkE_qMD46f8FKK5fPKrLClx3n9DEQg-G4fem93LDLo8PkkCohb0q4Q22B0pRLGPiafozYy1zCKavLcSxgenDYFKcMB4RAGdXlgZvIvq8HVZa7oxO7uoOpOegWKFhvPpJnWUQTjs0AAGqwG54ppyWB-wCCmO_oFSboM4R6rgMG9SM8TJVIy7mTA4mIZ51ab5Qq0Hq7yg5sb52b7D0uCW8jRVVTlewYAod5Qol6_g2eNysyXVtv9RkMnsJjtxi271adWYMDdKGuUNNjPbT_Ed0q2j6_ipGzupylg4V0gMpewFdOO0ZS-KbRErKAmLpyvZZR7V4o3eUh7kpvlusNlXawdFuzJjGgPPVrROAe5ujFW4t0OxgU3dcen8-UddvPStwSWI4oJOqrOQ-dWMQ7jdfRewnYGwP7pZo-ZdUBZ4Ly8QB5tYbu9FpXCie95WdJBoqXizNSVa0hvy4E68dE6VMWgXwKQwM_p7q7KFN3VqvIK_tP6TtRMuDBpwl4-YSVHVjo7eOvgE2TLgmjexCqWk06_bJKZhzB_of26-QvyBkT8vA42rxOY4PLCTwlmfHaCDH4UgwdhOw-BkPiw4qSso-7HUiTm0y2EX1W7zRghSOdMj8CnNqDYCPppQKbRJK2FWG9W8SXVhqgtlRvk4Udja7_DUdHDOssIYOko0oz08JXR_cwi9bXQ2xgXNeumr8df7_I3DtLqpHIu0cZdCsWXrYafJNMlvWpgtKPijMiU8AiPhSDBTdhDr36cEIlz8M359xjeABApVnB8HSyE2Ssb81LetgmQpvBa-2Ojk7XSIgSkF6RMS11H6hXxLvZC_EOAIitRTE0_jWHhvYw2T6_ZraW84vsqPWJfwiyh8vyzQE3topdJGqdcFkFS9iFmLHTdme8-L6IFCu8qqNmmlYJLyCU49kfB3OpQrJyzcndqNcf3d77PPcD9RIvaHMEho_14G_Ys49YopI8CgD3-LIgZGaabFDbVnWBYCEYt8QgTBmYCOXDFqBPEsbLJeYdym_r_762Pecxn4-sWKB-c_-2VnpULQ1ahhDRUYRi3pXSmj-l6fkxmPiZfN_I3WabcdaTGmhuVBYJKljrKwTmBnNb_ub3qF_c-BXzxCjzhDzuH2j7a5DJmYgw9hObmvYicy73udS_iJYB54lAS9Czawfa-X5I2pk4DL9JX0H-18eJYZgADWWXooJ72ShcaYkiRvEOBIsuiKF-FmDtYZ1CLjRuHKi6tPHuOK3w_5y47N1XSFUsnr4RuOWeZSHCtWddWc2UTInsZDMMWJTe3_FnNcyiacYGoGixdy0]--></g></svg>