<svg xmlns="http://www.w3.org/2000/svg" xmlns:xlink="http://www.w3.org/1999/xlink" contentStyleType="text/css" data-diagram-type="DESCRIPTION" height="1602px" preserveAspectRatio="none" style="width:1255px;height:1602px;background:#FFFFFF;" version="1.1" viewBox="0 0 1255 1602" width="1255px" zoomAndPan="magnify"><defs/><g><!--entity CAM_FRONT--><g class="entity" data-entity="CAM_FRONT" data-source-line="6" data-uid="ent0002" id="entity_CAM_FRONT"><rect fill="#FFE6E6" height="56.6406" rx="2.5" ry="2.5" style="stroke:#181818;stroke-width:0.5;" width="113.3242" x="900" y="25"/><text fill="#000000" font-family="sans-serif" font-size="14" lengthAdjust="spacing" textLength="64.8867" x="910" y="49.6016">Camera&#9312;</text><text fill="#000000" font-family="sans-serif" font-size="14" lengthAdjust="spacing" textLength="93.3242" x="910" y="67.9219">(&#21069;&#26041;&#12539;&#20808;&#35501;&#12415;)</text></g><!--entity CAM_DOWN--><g class="entity" data-entity="CAM_DOWN" data-source-line="7" data-uid="ent0003" id="entity_CAM_DOWN"><rect fill="#FFE6E6" height="56.6406" rx="2.5" ry="2.5" style="stroke:#181818;stroke-width:0.5;" width="127.3242" x="738" y="25"/><text fill="#000000" font-family="sans-serif" font-size="14" lengthAdjust="spacing" textLength="64.8867" x="748" y="49.6016">Camera&#9313;</text><text fill="#000000" font-family="sans-serif" font-size="14" lengthAdjust="spacing" textLength="107.3242" x="748" y="67.9219">(&#35211;&#19979;&#12429;&#12375;&#12539;&#36817;&#25509;)</text></g><!--entity IMU--><g class="entity" data-entity="IMU" data-source-line="8" data-uid="ent0004" id="entity_IMU"><rect fill="#FFE6E6" height="38.3203" rx="2.5" ry="2.5" style="stroke:#181818;stroke-width:0.5;" width="47.1318" x="212" y="34.5"/><text fill="#000000" font-family="sans-serif" font-size="14" lengthAdjust="spacing" textLength="27.1318" x="222" y="59.1016">IMU</text></g><!--entity ENC--><g class="entity" data-entity="ENC" data-source-line="9" data-uid="ent0005" id="entity_ENC"><rect fill="#FFE6E6" height="38.3203" rx="2.5" ry="2.5" style="stroke:#181818;stroke-width:0.5;" width="117.9727" x="429.5" y="34.5"/><text fill="#000000" font-family="sans-serif" font-size="14" lengthAdjust="spacing" textLength="97.9727" x="439.5" y="59.1016">Motor Encoder</text></g><!--entity VISION--><g class="entity" data-entity="VISION" data-source-line="11" data-uid="ent0006" id="entity_VISION"><rect fill="#E6F3FF" height="56.6406" rx="2.5" ry="2.5" style="stroke:#181818;stroke-width:0.5;" width="70.0186" x="843.5" y="197"/><text fill="#000000" font-family="sans-serif" font-size="14" lengthAdjust="spacing" textLength="39.8604" x="853.5" y="221.6016">Vision</text><text fill="#000000" font-family="sans-serif" font-size="14" lengthAdjust="spacing" textLength="50.0186" x="853.5" y="239.9219">Module</text></g><!--entity ODOM--><g class="entity" data-entity="ODOM" data-source-line="12" data-uid="ent0007" id="entity_ODOM"><rect fill="#E6F3FF" height="56.6406" rx="2.5" ry="2.5" style="stroke:#181818;stroke-width:0.5;" width="85.4268" x="446" y="197"/><text fill="#000000" font-family="sans-serif" font-size="14" lengthAdjust="spacing" textLength="65.4268" x="456" y="221.6016">Odometry</text><text fill="#000000" font-family="sans-serif" font-size="14" lengthAdjust="spacing" textLength="50.0186" x="456" y="239.9219">Module</text></g><!--entity LOCAL--><g class="entity" data-entity="LOCAL" data-source-line="13" data-uid="ent0008" id="entity_LOCAL"><rect fill="#E6F3FF" height="56.6406" rx="2.5" ry="2.5" style="stroke:#181818;stroke-width:0.5;" width="98.5518" x="619" y="371"/><text fill="#000000" font-family="sans-serif" font-size="14" lengthAdjust="spacing" textLength="78.5518" x="629" y="395.6016">Localization</text><text fill="#000000" font-family="sans-serif" font-size="14" lengthAdjust="spacing" textLength="50.0186" x="629" y="413.9219">Module</text></g><!--entity MAP--><g class="entity" data-entity="MAP" data-source-line="15" data-uid="ent0009" id="entity_MAP"><rect fill="#FFF9E6" height="56.6406" rx="2.5" ry="2.5" style="stroke:#181818;stroke-width:0.5;" width="77.7227" x="657.5" y="524"/><text fill="#000000" font-family="sans-serif" font-size="14" lengthAdjust="spacing" textLength="57.7227" x="667.5" y="548.6016">Mapping</text><text fill="#000000" font-family="sans-serif" font-size="14" lengthAdjust="spacing" textLength="50.0186" x="667.5" y="566.9219">Module</text></g><!--entity EXPLORE--><g class="entity" data-entity="EXPLORE" data-source-line="16" data-uid="ent0010" id="entity_EXPLORE"><rect fill="#FFF9E6" height="56.6406" rx="2.5" ry="2.5" style="stroke:#181818;stroke-width:0.5;" width="94.5254" x="437" y="677"/><text fill="#000000" font-family="sans-serif" font-size="14" lengthAdjust="spacing" textLength="74.5254" x="447" y="701.6016">Exploration</text><text fill="#000000" font-family="sans-serif" font-size="14" lengthAdjust="spacing" textLength="50.0186" x="447" y="719.9219">Module</text></g><!--entity PATH--><g class="entity" data-entity="PATH" data-source-line="17" data-uid="ent0011" id="entity_PATH"><rect fill="#FFF9E6" height="56.6406" rx="2.5" ry="2.5" style="stroke:#181818;stroke-width:0.5;" width="110.4941" x="357.5" y="830"/><text fill="#000000" font-family="sans-serif" font-size="14" lengthAdjust="spacing" textLength="90.4941" x="367.5" y="854.6016">Path Planning</text><text fill="#000000" font-family="sans-serif" font-size="14" lengthAdjust="spacing" textLength="50.0186" x="367.5" y="872.9219">Module</text></g><!--entity FOLLOW--><g class="entity" data-entity="FOLLOW" data-source-line="19" data-uid="ent0012" id="entity_FOLLOW"><rect fill="#E6FFE6" height="56.6406" rx="2.5" ry="2.5" style="stroke:#181818;stroke-width:0.5;" width="116.4141" x="196.5" y="983"/><text fill="#000000" font-family="sans-serif" font-size="14" lengthAdjust="spacing" textLength="96.4141" x="206.5" y="1007.6016">Path Following</text><text fill="#000000" font-family="sans-serif" font-size="14" lengthAdjust="spacing" textLength="50.0186" x="206.5" y="1025.9219">Module</text></g><!--entity MOTION--><g class="entity" data-entity="MOTION" data-source-line="20" data-uid="ent0013" id="entity_MOTION"><rect fill="#E6FFE6" height="56.6406" rx="2.5" ry="2.5" style="stroke:#181818;stroke-width:0.5;" width="119.6133" x="194.5" y="1136"/><text fill="#000000" font-family="sans-serif" font-size="14" lengthAdjust="spacing" textLength="99.6133" x="204.5" y="1160.6016">Motion Control</text><text fill="#000000" font-family="sans-serif" font-size="14" lengthAdjust="spacing" textLength="50.0186" x="204.5" y="1178.9219">Module</text></g><!--entity STAB--><g class="entity" data-entity="STAB" data-source-line="21" data-uid="ent0014" id="entity_STAB"><rect fill="#E6FFE6" height="56.6406" rx="2.5" ry="2.5" style="stroke:#181818;stroke-width:0.5;" width="100.6709" x="7" y="284"/><text fill="#000000" font-family="sans-serif" font-size="14" lengthAdjust="spacing" textLength="80.6709" x="17" y="308.6016">Stabilization</text><text fill="#000000" font-family="sans-serif" font-size="14" lengthAdjust="spacing" textLength="50.0186" x="17" y="326.9219">Module</text></g><!--entity STATE--><g class="entity" data-entity="STATE" data-source-line="23" data-uid="ent0015" id="entity_STATE"><rect fill="#F3E6FF" height="56.6406" rx="2.5" ry="2.5" style="stroke:#181818;stroke-width:0.5;" width="77.3945" x="280" y="524"/><text fill="#000000" font-family="sans-serif" font-size="14" lengthAdjust="spacing" textLength="33.5439" x="290" y="548.6016">State</text><text fill="#000000" font-family="sans-serif" font-size="14" lengthAdjust="spacing" textLength="57.3945" x="290" y="566.9219">Manager</text></g><!--entity MISSION--><g class="entity" data-entity="MISSION" data-source-line="24" data-uid="ent0016" id="entity_MISSION"><rect fill="#F3E6FF" height="56.6406" rx="2.5" ry="2.5" style="stroke:#181818;stroke-width:0.5;" width="86.2539" x="275.5" y="371"/><text fill="#000000" font-family="sans-serif" font-size="14" lengthAdjust="spacing" textLength="50.0322" x="285.5" y="395.6016">Mission</text><text fill="#000000" font-family="sans-serif" font-size="14" lengthAdjust="spacing" textLength="66.2539" x="285.5" y="413.9219">Controller</text></g><!--entity SAFETY--><g class="entity" data-entity="SAFETY" data-source-line="25" data-uid="ent0017" id="entity_SAFETY"><rect fill="#F3E6FF" height="56.6406" rx="2.5" ry="2.5" style="stroke:#181818;stroke-width:0.5;" width="70.0186" x="1075.5" y="524"/><text fill="#000000" font-family="sans-serif" font-size="14" lengthAdjust="spacing" textLength="39.874" x="1085.5" y="548.6016">Safety</text><text fill="#000000" font-family="sans-serif" font-size="14" lengthAdjust="spacing" textLength="50.0186" x="1085.5" y="566.9219">Module</text></g><!--entity MOTOR--><g class="entity" data-entity="MOTOR" data-source-line="27" data-uid="ent0018" id="entity_MOTOR"><rect fill="#FFE6E6" height="56.6406" rx="2.5" ry="2.5" style="stroke:#181818;stroke-width:0.5;" width="71.5361" x="627.5" y="1289"/><text fill="#000000" font-family="sans-serif" font-size="14" lengthAdjust="spacing" textLength="51.5361" x="637.5" y="1313.6016">Stepper</text><text fill="#000000" font-family="sans-serif" font-size="14" lengthAdjust="spacing" textLength="46.0332" x="637.5" y="1331.9219">Motors</text></g><!--entity EVENT--><g class="entity" data-entity="EVENT" data-source-line="29" data-uid="ent0019" id="entity_EVENT"><rect fill="#E6E6E6" height="56.6406" rx="2.5" ry="2.5" style="stroke:#181818;stroke-width:0.5;" width="84.2168" x="834.5" y="677"/><text fill="#000000" font-family="sans-serif" font-size="14" lengthAdjust="spacing" textLength="55.7402" x="844.5" y="701.6016">Reactive</text><text fill="#000000" font-family="sans-serif" font-size="14" lengthAdjust="spacing" textLength="64.2168" x="844.5" y="719.9219">Event Bus</text></g><!--entity API--><g class="entity" data-entity="API" data-source-line="30" data-uid="ent0020" id="entity_API"><rect fill="#E6E6E6" height="56.6406" rx="2.5" ry="2.5" style="stroke:#181818;stroke-width:0.5;" width="91.8115" x="830.5" y="830"/><text fill="#000000" font-family="sans-serif" font-size="14" lengthAdjust="spacing" textLength="71.8115" x="840.5" y="854.6016">Monitoring</text><text fill="#000000" font-family="sans-serif" font-size="14" lengthAdjust="spacing" textLength="21.6631" x="840.5" y="872.9219">API</text></g><g class="entity" data-entity="N1" data-source-line="88" data-uid="ent0049" id="entity_N1"><path d="M1048.5,6 L1048.5,101.0586 L1220.0601,101.0586 L1220.0601,16 L1210.0601,6 L1048.5,6" fill="#FEFFDD" style="stroke:#181818;stroke-width:0.5;"/><path d="M1210.0601,6 L1210.0601,16 L1220.0601,16 L1210.0601,6" fill="#FEFFDD" style="stroke:#181818;stroke-width:1;"/><text fill="#000000" font-family="sans-serif" font-size="13" font-weight="bold" lengthAdjust="spacing" textLength="53.625" x="1054.5" y="24.5586">&#21046;&#24481;&#21608;&#26399;</text><text fill="#000000" font-family="sans-serif" font-size="13" lengthAdjust="spacing" textLength="104.8379" x="1054.5" y="41.5703">&#12539;&#30011;&#20687;&#20966;&#29702;: 30Hz</text><text fill="#000000" font-family="sans-serif" font-size="13" lengthAdjust="spacing" textLength="113.0264" x="1054.5" y="58.582">&#12539;&#20301;&#32622;&#25512;&#23450;: 100Hz</text><text fill="#000000" font-family="sans-serif" font-size="13" lengthAdjust="spacing" textLength="129.3843" x="1054.5" y="75.5938">&#12539;&#12514;&#12540;&#12479;&#12540;&#21046;&#24481;: 1kHz</text><text fill="#000000" font-family="sans-serif" font-size="13" lengthAdjust="spacing" textLength="150.5601" x="1054.5" y="92.6055">&#12539;&#32076;&#36335;&#35336;&#30011;: &#12452;&#12505;&#12531;&#12488;&#39366;&#21205;</text></g><!--link CAM_FRONT to VISION--><g class="link" data-entity-1="CAM_FRONT" data-entity-2="VISION" data-source-line="33" data-uid="lnk21" id="link_CAM_FRONT_VISION"><path d="M949.13,82.13 C942.4,105.42 931.4,139.28 917.5,167 C912.42,177.14 909.2211,182.6439 902.8911,191.8039" fill="none" id="CAM_FRONT-to-VISION" style="stroke:#181818;stroke-width:1;"/><polygon fill="#181818" points="899.48,196.74,907.8873,191.6099,902.3225,192.6266,901.3059,187.0619,899.48,196.74" style="stroke:#181818;stroke-width:1;"/><text fill="#000000" font-family="sans-serif" font-size="13" lengthAdjust="spacing" textLength="52" x="943.3291" y="145.5586">&#21069;&#26041;&#30011;&#20687;</text><text fill="#000000" font-family="sans-serif" font-size="13" lengthAdjust="spacing" textLength="73.6582" x="932.5" y="162.5703">(&#22721;&#12398;&#20808;&#35501;&#12415;)</text></g><!--link CAM_DOWN to VISION--><g class="link" data-entity-1="CAM_DOWN" data-entity-2="VISION" data-source-line="34" data-uid="lnk22" id="link_CAM_DOWN_VISION"><path d="M794.11,82.01 C789.26,105.84 786.03,140.54 799.5,167 C808.73,185.14 821.4756,195.907 837.9256,205.417" fill="none" id="CAM_DOWN-to-VISION" style="stroke:#181818;stroke-width:1;"/><polygon fill="#181818" points="843.12,208.42,837.3303,200.4526,838.7913,205.9175,833.3264,207.3785,843.12,208.42" style="stroke:#181818;stroke-width:1;"/><text fill="#000000" font-family="sans-serif" font-size="13" lengthAdjust="spacing" textLength="52" x="830.8291" y="145.5586">&#20463;&#30640;&#30011;&#20687;</text><text fill="#000000" font-family="sans-serif" font-size="13" lengthAdjust="spacing" textLength="112.6582" x="800.5" y="162.5703">(&#36817;&#25509;&#26908;&#30693;&#12539;&#20840;&#26041;&#21521;)</text></g><!--link IMU to ODOM--><g class="link" data-entity-1="IMU" data-entity-2="ODOM" data-source-line="35" data-uid="lnk23" id="link_IMU_ODOM"><path d="M255.18,72.71 C281.22,96.24 329.13,137.68 374.5,167 C397.12,181.62 418.5245,192.7481 440.4645,203.1081" fill="none" id="IMU-to-ODOM" style="stroke:#181818;stroke-width:1;"/><polygon fill="#181818" points="445.89,205.67,439.4596,198.2101,441.3687,203.5351,436.0437,205.4441,445.89,205.67" style="stroke:#181818;stroke-width:1;"/><text fill="#000000" font-family="sans-serif" font-size="13" lengthAdjust="spacing" textLength="104" x="375.5" y="145.5586">&#21152;&#36895;&#24230;&#12539;&#12472;&#12515;&#12452;&#12525;</text><text fill="#000000" font-family="sans-serif" font-size="13" lengthAdjust="spacing" textLength="49.1245" x="402.9377" y="162.5703">(100Hz)</text></g><!--link ENC to ODOM--><g class="link" data-entity-1="ENC" data-entity-2="ODOM" data-source-line="36" data-uid="lnk24" id="link_ENC_ODOM"><path d="M488.5,72.69 C488.5,102.5 488.5,155.92 488.5,190.93" fill="none" id="ENC-to-ODOM" style="stroke:#181818;stroke-width:1;"/><polygon fill="#181818" points="488.5,196.93,492.5,187.93,488.5,191.93,484.5,187.93,488.5,196.93" style="stroke:#181818;stroke-width:1;"/><text fill="#000000" font-family="sans-serif" font-size="13" lengthAdjust="spacing" textLength="39" x="489.5" y="154.0586">&#22238;&#36578;&#25968;</text></g><!--link VISION to LOCAL--><g class="link" data-entity-1="VISION" data-entity-2="LOCAL" data-source-line="38" data-uid="lnk25" id="link_VISION_LOCAL"><path d="M843.39,226.55 C799.96,228.63 726.95,239.15 687.5,284 C666.74,307.6 663.9488,338.9666 665.1488,364.5466" fill="none" id="VISION-to-LOCAL" style="stroke:#181818;stroke-width:1;"/><polygon fill="#181818" points="665.43,370.54,669.0039,361.3624,665.1957,365.5455,661.0127,361.7373,665.43,370.54" style="stroke:#181818;stroke-width:1;"/><text fill="#000000" font-family="sans-serif" font-size="13" lengthAdjust="spacing" textLength="65" x="692.8291" y="309.0586">&#22721;&#26908;&#20986;&#24773;&#22577;</text><text fill="#000000" font-family="sans-serif" font-size="13" lengthAdjust="spacing" textLength="73.6582" x="688.5" y="326.0703">(&#36317;&#38626;&#12539;&#35282;&#24230;)</text></g><!--link ODOM to LOCAL--><g class="link" data-entity-1="ODOM" data-entity-2="LOCAL" data-source-line="39" data-uid="lnk26" id="link_ODOM_LOCAL"><path d="M507.75,254.36 C525.46,278.84 553.34,314.57 582.5,341 C594.34,351.74 603.3473,358.6475 616.5773,367.4075" fill="none" id="ODOM-to-LOCAL" style="stroke:#181818;stroke-width:1;"/><polygon fill="#181818" points="621.58,370.72,616.2842,362.4161,617.411,367.9596,611.8676,369.0864,621.58,370.72" style="stroke:#181818;stroke-width:1;"/><text fill="#000000" font-family="sans-serif" font-size="13" lengthAdjust="spacing" textLength="52" x="583.5" y="309.0586">&#25512;&#23450;&#20301;&#32622;</text><text fill="#000000" font-family="sans-serif" font-size="13" lengthAdjust="spacing" textLength="48.0835" x="585.4583" y="326.0703">(x, y, &#952;)</text></g><!--link LOCAL to MAP--><g class="link" data-entity-1="LOCAL" data-entity-2="MAP" data-source-line="42" data-uid="lnk27" id="link_LOCAL_MAP"><path d="M665.73,428.27 C664.6,447.07 664.54,472.32 669.5,494 C671.84,504.21 673.5282,509.368 678.0382,518.608" fill="none" id="LOCAL-to-MAP" style="stroke:#181818;stroke-width:1;"/><polygon fill="#181818" points="680.67,524,680.317,514.1575,678.4768,519.5067,673.1276,517.6665,680.67,524" style="stroke:#181818;stroke-width:1;"/><text fill="#000000" font-family="sans-serif" font-size="13" lengthAdjust="spacing" textLength="91" x="670.5" y="472.5586">&#29694;&#22312;&#20301;&#32622;&#12539;&#23039;&#21218;</text><text fill="#000000" font-family="sans-serif" font-size="13" lengthAdjust="spacing" textLength="48.0835" x="691.9583" y="489.5703">(x, y, &#952;)</text></g><!--link VISION to MAP--><g class="link" data-entity-1="VISION" data-entity-2="MAP" data-source-line="43" data-uid="lnk28" id="link_VISION_MAP"><path d="M871.72,254.16 C858.18,305.34 824.06,416.66 766.5,494 C757.96,505.48 751.3173,512.312 740.2773,521.182" fill="none" id="VISION-to-MAP" style="stroke:#181818;stroke-width:1;"/><polygon fill="#181818" points="735.6,524.94,745.1213,522.4213,739.4978,521.8084,740.1107,516.1848,735.6,524.94" style="stroke:#181818;stroke-width:1;"/><text fill="#000000" font-family="sans-serif" font-size="13" lengthAdjust="spacing" textLength="39" x="842.3291" y="396.0586">&#22721;&#24773;&#22577;</text><text fill="#000000" font-family="sans-serif" font-size="13" lengthAdjust="spacing" textLength="60.6582" x="831.5" y="413.0703">(&#21069;&#24460;&#24038;&#21491;)</text></g><!--link MAP to EXPLORE--><g class="link" data-entity-1="MAP" data-entity-2="EXPLORE" data-source-line="44" data-uid="lnk29" id="link_MAP_EXPLORE"><path d="M657.09,572.77 C637.76,582.99 614.59,596.44 595.5,611 C577.51,624.72 576.52,632.08 559.5,647 C547.9,657.17 539.4866,663.989 527.4366,673.149" fill="none" id="MAP-to-EXPLORE" style="stroke:#181818;stroke-width:1;"/><polygon fill="#181818" points="522.66,676.78,532.2456,674.5179,526.6405,673.7542,527.4042,668.1491,522.66,676.78" style="stroke:#181818;stroke-width:1;"/><text fill="#000000" font-family="sans-serif" font-size="13" lengthAdjust="spacing" textLength="65" x="600.8831" y="625.5586">&#36855;&#36335;&#12510;&#12483;&#12503;</text><text fill="#000000" font-family="sans-serif" font-size="13" lengthAdjust="spacing" textLength="73.7661" x="596.5" y="642.5703">(16x16&#37197;&#21015;)</text></g><!--link MAP to PATH--><g class="link" data-entity-1="MAP" data-entity-2="PATH" data-source-line="45" data-uid="lnk30" id="link_MAP_PATH"><path d="M693.56,581.32 C690.68,600.59 685.1,626.39 674.5,647 C633.14,727.38 613.17,746.25 540.5,800 C518.56,816.23 496.8868,827.0215 473.1868,836.5515" fill="none" id="MAP-to-PATH" style="stroke:#181818;stroke-width:1;"/><polygon fill="#181818" points="467.62,838.79,477.4625,839.1435,472.259,836.9246,474.4779,831.7211,467.62,838.79" style="stroke:#181818;stroke-width:1;"/><text fill="#000000" font-family="sans-serif" font-size="13" lengthAdjust="spacing" textLength="65" x="663.8831" y="702.0586">&#36855;&#36335;&#12510;&#12483;&#12503;</text><text fill="#000000" font-family="sans-serif" font-size="13" lengthAdjust="spacing" textLength="73.7661" x="659.5" y="719.0703">(16x16&#37197;&#21015;)</text></g><!--link EXPLORE to PATH--><g class="link" data-entity-1="EXPLORE" data-entity-2="PATH" data-source-line="46" data-uid="lnk31" id="link_EXPLORE_PATH"><path d="M471.29,734.2 C458.3,761.44 441.1624,797.3842 428.2024,824.5642" fill="none" id="EXPLORE-to-PATH" style="stroke:#181818;stroke-width:1;"/><polygon fill="#181818" points="425.62,829.98,433.1041,823.5778,427.772,825.4668,425.883,820.1347,425.62,829.98" style="stroke:#181818;stroke-width:1;"/><text fill="#000000" font-family="sans-serif" font-size="13" lengthAdjust="spacing" textLength="52" x="469.3291" y="778.5586">&#25506;&#32034;&#30446;&#27161;</text><text fill="#000000" font-family="sans-serif" font-size="13" lengthAdjust="spacing" textLength="73.6582" x="458.5" y="795.5703">(&#12468;&#12540;&#12523;&#24231;&#27161;)</text></g><!--link PATH to FOLLOW--><g class="link" data-entity-1="PATH" data-entity-2="FOLLOW" data-source-line="49" data-uid="lnk32" id="link_PATH_FOLLOW"><path d="M383.52,887.2 C355.01,914.44 316.0776,951.6545 287.6376,978.8345" fill="none" id="PATH-to-FOLLOW" style="stroke:#181818;stroke-width:1;"/><polygon fill="#181818" points="283.3,982.98,292.5701,979.6536,286.9147,979.5254,287.0428,973.87,283.3,982.98" style="stroke:#181818;stroke-width:1;"/><text fill="#000000" font-family="sans-serif" font-size="13" lengthAdjust="spacing" textLength="52" x="353.5" y="931.5586">&#30446;&#27161;&#32076;&#36335;</text><text fill="#000000" font-family="sans-serif" font-size="13" lengthAdjust="spacing" textLength="47.6582" x="355.6709" y="948.5703">(&#24231;&#27161;&#21015;)</text></g><!--link LOCAL to FOLLOW--><g class="link" data-entity-1="LOCAL" data-entity-2="FOLLOW" data-source-line="50" data-uid="lnk33" id="link_LOCAL_FOLLOW"><path d="M618.67,404.56 C490.34,416.38 158.5,456.16 158.5,551.5 C158.5,551.5 158.5,551.5 158.5,859.5 C158.5,908.74 191.0558,950.6489 219.0858,978.6589" fill="none" id="LOCAL-to-FOLLOW" style="stroke:#181818;stroke-width:1;"/><polygon fill="#181818" points="223.33,982.9,219.7912,973.7089,219.7932,979.3657,214.1364,979.3677,223.33,982.9" style="stroke:#181818;stroke-width:1;"/><text fill="#000000" font-family="sans-serif" font-size="13" lengthAdjust="spacing" textLength="91" x="159.5" y="702.0586">&#29694;&#22312;&#20301;&#32622;&#12539;&#23039;&#21218;</text><text fill="#000000" font-family="sans-serif" font-size="13" lengthAdjust="spacing" textLength="48.0835" x="180.9583" y="719.0703">(x, y, &#952;)</text></g><!--link FOLLOW to MOTION--><g class="link" data-entity-1="FOLLOW" data-entity-2="MOTION" data-source-line="51" data-uid="lnk34" id="link_FOLLOW_MOTION"><path d="M254.5,1040.2 C254.5,1067.44 254.5,1102.8 254.5,1129.98" fill="none" id="FOLLOW-to-MOTION" style="stroke:#181818;stroke-width:1;"/><polygon fill="#181818" points="254.5,1135.98,258.5,1126.98,254.5,1130.98,250.5,1126.98,254.5,1135.98" style="stroke:#181818;stroke-width:1;"/><text fill="#000000" font-family="sans-serif" font-size="13" lengthAdjust="spacing" textLength="52" x="261.8254" y="1084.5586">&#30446;&#27161;&#36895;&#24230;</text><text fill="#000000" font-family="sans-serif" font-size="13" lengthAdjust="spacing" textLength="64.6509" x="255.5" y="1101.5703">(Vx, Vy, &#969;)</text></g><!--link IMU to STAB--><g class="link" data-entity-1="IMU" data-entity-2="STAB" data-source-line="52" data-uid="lnk35" id="link_IMU_STAB"><path d="M222.98,72.57 C192.36,116.79 116.9064,225.7377 80.2164,278.7077" fill="none" id="IMU-to-STAB" style="stroke:#181818;stroke-width:1;"/><polygon fill="#181818" points="76.8,283.64,85.2129,278.5191,79.647,279.5297,78.6364,273.9639,76.8,283.64" style="stroke:#181818;stroke-width:1;"/><text fill="#000000" font-family="sans-serif" font-size="13" lengthAdjust="spacing" textLength="65" x="197.1914" y="145.5586">&#23039;&#21218;&#12487;&#12540;&#12479;</text><text fill="#000000" font-family="sans-serif" font-size="13" lengthAdjust="spacing" textLength="96.3828" x="181.5" y="162.5703">(roll, pitch, yaw)</text></g><!--link STAB to MOTION--><g class="link" data-entity-1="STAB" data-entity-2="MOTION" data-source-line="53" data-uid="lnk36" id="link_STAB_MOTION"><path d="M54.74,341.19 C51.78,373.33 47.5,427.95 47.5,475 C47.5,475 47.5,475 47.5,1012.5 C47.5,1085.79 127.5353,1125.3905 188.6553,1145.6705" fill="none" id="STAB-to-MOTION" style="stroke:#181818;stroke-width:1;"/><polygon fill="#181818" points="194.35,1147.56,187.0676,1140.9292,189.6044,1145.9854,184.5483,1148.5222,194.35,1147.56" style="stroke:#181818;stroke-width:1;"/><text fill="#000000" font-family="sans-serif" font-size="13" lengthAdjust="spacing" textLength="39" x="48.5" y="702.0586">&#35036;&#27491;&#20516;</text><text fill="#000000" font-family="sans-serif" font-size="13" lengthAdjust="spacing" textLength="34.6582" x="50.6709" y="719.0703">(&#916;&#969;)</text></g><!--link MOTION to MOTOR--><g class="link" data-entity-1="MOTION" data-entity-2="MOTOR" data-source-line="54" data-uid="lnk37" id="link_MOTION_MOTOR"><path d="M314.85,1187.78 C401.18,1219.65 551.6114,1275.1919 621.8714,1301.1319" fill="none" id="MOTION-to-MOTOR" style="stroke:#181818;stroke-width:1;"/><polygon fill="#181818" points="627.5,1303.21,620.4424,1296.3404,622.8095,1301.4783,617.6717,1303.8453,627.5,1303.21" style="stroke:#181818;stroke-width:1;"/><text fill="#000000" font-family="sans-serif" font-size="13" lengthAdjust="spacing" textLength="78" x="509.5" y="1237.5586">&#12514;&#12540;&#12479;&#12540;&#25351;&#20196;</text><text fill="#000000" font-family="sans-serif" font-size="13" lengthAdjust="spacing" textLength="68.8467" x="514.0767" y="1254.5703">(3&#36600;&#12497;&#12523;&#12473;)</text></g><!--link MISSION to STATE--><g class="link" data-entity-1="MISSION" data-entity-2="STATE" data-source-line="57" data-uid="lnk38" id="link_MISSION_STATE"><path d="M318.5,428.2 C318.5,455.44 318.5,490.8 318.5,517.98" fill="none" id="MISSION-to-STATE" style="stroke:#181818;stroke-width:1;"/><polygon fill="#181818" points="318.5,523.98,322.5,514.98,318.5,518.98,314.5,514.98,318.5,523.98" style="stroke:#181818;stroke-width:1;"/><text fill="#000000" font-family="sans-serif" font-size="13" lengthAdjust="spacing" textLength="78" x="319.5" y="472.5586">&#29366;&#24907;&#36983;&#31227;&#25351;&#20196;</text><text fill="#000000" font-family="sans-serif" font-size="13" lengthAdjust="spacing" textLength="67.1582" x="324.9209" y="489.5703">(&#25506;&#32034;/&#26368;&#30701;)</text></g><!--link STATE to EXPLORE--><g class="link" data-entity-1="STATE" data-entity-2="EXPLORE" data-source-line="58" data-uid="lnk39" id="link_STATE_EXPLORE"><path d="M309.25,581.11 C304.34,601.27 301.8,628.25 315.5,647 C341.37,682.41 368.02,662.78 409.5,677 C418.42,680.06 422.2507,681.381 431.3607,684.691" fill="none" id="STATE-to-EXPLORE" style="stroke:#181818;stroke-width:1;"/><polygon fill="#181818" points="437,686.74,429.907,679.907,432.3006,685.0325,427.1751,687.4261,437,686.74" style="stroke:#181818;stroke-width:1;"/><text fill="#000000" font-family="sans-serif" font-size="13" lengthAdjust="spacing" textLength="84.5" x="316.5" y="634.0586">&#25506;&#32034;&#38283;&#22987;/&#20572;&#27490;</text></g><!--link STATE to PATH--><g class="link" data-entity-1="STATE" data-entity-2="PATH" data-source-line="59" data-uid="lnk40" id="link_STATE_PATH"><path d="M305.66,581.33 C298.7,599.93 292.45,624.94 297.5,647 C313.89,718.65 358.7613,786.7441 387.2813,825.1241" fill="none" id="STATE-to-PATH" style="stroke:#181818;stroke-width:1;"/><polygon fill="#181818" points="390.86,829.94,388.7026,820.3303,387.8778,825.9267,382.2814,825.1019,390.86,829.94" style="stroke:#181818;stroke-width:1;"/><text fill="#000000" font-family="sans-serif" font-size="13" lengthAdjust="spacing" textLength="78" x="331.5" y="710.5586">&#26368;&#30701;&#32076;&#36335;&#35201;&#27714;</text></g><!--link LOCAL to SAFETY--><g class="link" data-entity-1="LOCAL" data-entity-2="SAFETY" data-source-line="62" data-uid="lnk41" id="link_LOCAL_SAFETY"><path d="M718.08,420.26 C727.09,423.26 736.49,426.01 745.5,428 C816.54,443.69 1012.87,414.92 1071.5,458 C1092.48,473.41 1101.0057,496.3862 1105.5057,517.9762" fill="none" id="LOCAL-to-SAFETY" style="stroke:#181818;stroke-width:1;stroke-dasharray:7,7;"/><polygon fill="#181818" points="1106.73,523.85,1108.8094,514.2232,1105.7098,518.9552,1100.9778,515.8555,1106.73,523.85" style="stroke:#181818;stroke-width:1;"/><text fill="#000000" font-family="sans-serif" font-size="13" lengthAdjust="spacing" textLength="78" x="1097.5" y="481.0586">&#20301;&#32622;&#30064;&#24120;&#26908;&#30693;</text></g><!--link VISION to SAFETY--><g class="link" data-entity-1="VISION" data-entity-2="SAFETY" data-source-line="63" data-uid="lnk42" id="link_VISION_SAFETY"><path d="M913.72,239.51 C982.47,267.17 1132.39,339.19 1184.5,458 C1190.93,472.65 1191.53,479.63 1184.5,494 C1176.28,510.81 1165.558,520.8768 1150.678,530.4368" fill="none" id="VISION-to-SAFETY" style="stroke:#181818;stroke-width:1;stroke-dasharray:7,7;"/><polygon fill="#181818" points="1145.63,533.68,1155.364,532.1805,1149.8366,530.9774,1151.0398,525.4499,1145.63,533.68" style="stroke:#181818;stroke-width:1;"/><text fill="#000000" font-family="sans-serif" font-size="13" lengthAdjust="spacing" textLength="78" x="1169.5" y="404.5586">&#12475;&#12531;&#12469;&#12540;&#30064;&#24120;</text></g><!--link SAFETY to MOTOR--><g class="link" data-entity-1="SAFETY" data-entity-2="MOTOR" data-source-line="64" data-uid="lnk43" id="link_SAFETY_MOTOR"><path d="M1095.36,581.26 C1080.65,610.88 1060.5,659.63 1060.5,704.5 C1060.5,704.5 1060.5,704.5 1060.5,1165.5 C1060.5,1242.28 803.7054,1293.0657 705.6954,1309.7057" fill="none" id="SAFETY-to-MOTOR" style="stroke:#181818;stroke-width:1;stroke-dasharray:7,7;"/><polygon fill="#181818" points="699.78,1310.71,709.3226,1313.1471,704.7095,1309.8731,707.9835,1305.26,699.78,1310.71" style="stroke:#181818;stroke-width:1;"/><text fill="#000000" font-family="sans-serif" font-size="13" lengthAdjust="spacing" textLength="52" x="1061.5" y="940.0586">&#32202;&#24613;&#20572;&#27490;</text></g><!--link VISION to EVENT--><g class="link" data-entity-1="VISION" data-entity-2="EVENT" data-source-line="67" data-uid="lnk44" id="link_VISION_EVENT"><path d="M886.4,254.07 C900.55,302.84 931.61,407.34 962.5,494 C967.32,507.53 971.78,509.9 974.5,524 C979.29,548.88 982.84,557.08 974.5,581 C961.35,618.74 935.5973,649.3923 912.2273,672.3823" fill="none" id="VISION-to-EVENT" style="stroke:#181818;stroke-width:1;stroke-dasharray:7,7;"/><polygon fill="#181818" points="907.95,676.59,917.1711,673.1299,911.5144,673.0836,911.5608,667.4269,907.95,676.59" style="stroke:#181818;stroke-width:1;"/><text fill="#000000" font-family="sans-serif" font-size="13" lengthAdjust="spacing" textLength="44.9541" x="990.8521" y="472.5586">publish</text><text fill="#000000" font-family="sans-serif" font-size="13" lengthAdjust="spacing" textLength="99.6582" x="963.5" y="489.5703">(&#22721;&#26908;&#20986;&#12452;&#12505;&#12531;&#12488;)</text></g><!--link LOCAL to EVENT--><g class="link" data-entity-1="LOCAL" data-entity-2="EVENT" data-source-line="68" data-uid="lnk45" id="link_LOCAL_EVENT"><path d="M718.16,422.76 C735.83,432.11 755.15,444.07 770.5,458 C819.89,502.83 815.49,528.39 856.5,581 C867.35,594.92 876.33,594.47 882.5,611 C890.35,632.03 889.175,651.6782 885.335,670.7382" fill="none" id="LOCAL-to-EVENT" style="stroke:#181818;stroke-width:1;stroke-dasharray:7,7;"/><polygon fill="#181818" points="884.15,676.62,889.8487,668.5873,885.1375,671.7185,882.0063,667.0073,884.15,676.62" style="stroke:#181818;stroke-width:1;"/><text fill="#000000" font-family="sans-serif" font-size="13" lengthAdjust="spacing" textLength="44.9541" x="891.3521" y="549.0586">publish</text><text fill="#000000" font-family="sans-serif" font-size="13" lengthAdjust="spacing" textLength="112.6582" x="857.5" y="566.0703">(&#20301;&#32622;&#26356;&#26032;&#12452;&#12505;&#12531;&#12488;)</text></g><!--link MAP to EVENT--><g class="link" data-entity-1="MAP" data-entity-2="EVENT" data-source-line="69" data-uid="lnk46" id="link_MAP_EVENT"><path d="M707.32,581.09 C716.5,601.5 731.38,628.81 751.5,647 C775.15,668.39 802.4689,681.1219 828.6089,690.3019" fill="none" id="MAP-to-EVENT" style="stroke:#181818;stroke-width:1;stroke-dasharray:7,7;"/><polygon fill="#181818" points="834.27,692.29,827.1038,685.5338,829.5525,690.6333,824.453,693.0819,834.27,692.29" style="stroke:#181818;stroke-width:1;"/><text fill="#000000" font-family="sans-serif" font-size="13" lengthAdjust="spacing" textLength="44.9541" x="792.8521" y="625.5586">publish</text><text fill="#000000" font-family="sans-serif" font-size="13" lengthAdjust="spacing" textLength="125.6582" x="752.5" y="642.5703">(&#12510;&#12483;&#12503;&#26356;&#26032;&#12452;&#12505;&#12531;&#12488;)</text></g><!--link STATE to EVENT--><g class="link" data-entity-1="STATE" data-entity-2="EVENT" data-source-line="70" data-uid="lnk47" id="link_STATE_EVENT"><path d="M357.3,576.09 C372.93,585.96 390.72,598.19 405.5,611 C421.68,625.02 418.37,637.38 437.5,647 C505.66,681.27 704.47,663.2 779.5,677 C797.75,680.36 811.7715,683.9312 828.6615,688.9812" fill="none" id="STATE-to-EVENT" style="stroke:#181818;stroke-width:1;stroke-dasharray:7,7;"/><polygon fill="#181818" points="834.41,690.7,826.933,684.2895,829.6195,689.2677,824.6413,691.9542,834.41,690.7" style="stroke:#181818;stroke-width:1;"/><text fill="#000000" font-family="sans-serif" font-size="13" lengthAdjust="spacing" textLength="44.9541" x="472.3521" y="625.5586">publish</text><text fill="#000000" font-family="sans-serif" font-size="13" lengthAdjust="spacing" textLength="112.6582" x="438.5" y="642.5703">(&#29366;&#24907;&#22793;&#26356;&#12452;&#12505;&#12531;&#12488;)</text></g><!--link EVENT to API--><g class="link" data-entity-1="EVENT" data-entity-2="API" data-source-line="71" data-uid="lnk48" id="link_EVENT_API"><path d="M876.5,734.2 C876.5,761.44 876.5,796.8 876.5,823.98" fill="none" id="EVENT-to-API" style="stroke:#181818;stroke-width:1;stroke-dasharray:7,7;"/><polygon fill="#181818" points="876.5,829.98,880.5,820.98,876.5,824.98,872.5,820.98,876.5,829.98" style="stroke:#181818;stroke-width:1;"/><text fill="#000000" font-family="sans-serif" font-size="13" lengthAdjust="spacing" textLength="58.8745" x="884.8918" y="778.5586">subscribe</text><text fill="#000000" font-family="sans-serif" font-size="13" lengthAdjust="spacing" textLength="73.6582" x="877.5" y="795.5703">(&#20840;&#12452;&#12505;&#12531;&#12488;)</text></g><g class="legend" data-source-line="73"><rect fill="none" height="219.5234" rx="7.5" ry="7.5" style="stroke:#000000;stroke-width:1;" width="221.8594" x="1007.6406" y="1362.6406"/><text fill="#000000" font-family="sans-serif" font-size="14" font-weight="bold" lengthAdjust="spacing" textLength="28.875" x="1016.3047" y="1384.2422">&#32218;&#31278;</text><text fill="#000000" font-family="sans-serif" font-size="14" font-weight="bold" lengthAdjust="spacing" textLength="28.875" x="1071.5117" y="1384.2422">&#24847;&#21619;</text><text fill="#000000" font-family="sans-serif" font-size="14" lengthAdjust="spacing" textLength="45.6641" x="1016.3047" y="1402.5625">&#23455;&#32218; &#8594;</text><text fill="#000000" font-family="sans-serif" font-size="14" lengthAdjust="spacing" textLength="149.3242" x="1071.5117" y="1402.5625">&#20027;&#35201;&#12487;&#12540;&#12479;&#12501;&#12525;&#12540;(&#21516;&#26399;)</text><text fill="#000000" font-family="sans-serif" font-size="14" lengthAdjust="spacing" textLength="47.8789" x="1016.3047" y="1420.8828">&#28857;&#32218; ..&gt;</text><text fill="#000000" font-family="sans-serif" font-size="14" lengthAdjust="spacing" textLength="135.3242" x="1071.5117" y="1420.8828">&#12452;&#12505;&#12531;&#12488;&#37197;&#20449;(&#38750;&#21516;&#26399;)</text><line style="stroke:#000000;stroke-width:1;" x1="1012.6406" x2="1224.5" y1="1369.6406" y2="1369.6406"/><line style="stroke:#000000;stroke-width:1;" x1="1012.6406" x2="1224.5" y1="1387.9609" y2="1387.9609"/><line style="stroke:#000000;stroke-width:1;" x1="1012.6406" x2="1224.5" y1="1406.2813" y2="1406.2813"/><line style="stroke:#000000;stroke-width:1;" x1="1012.6406" x2="1224.5" y1="1424.6016" y2="1424.6016"/><line style="stroke:#000000;stroke-width:1;" x1="1012.6406" x2="1012.6406" y1="1369.6406" y2="1424.6016"/><line style="stroke:#000000;stroke-width:1;" x1="1067.8477" x2="1067.8477" y1="1369.6406" y2="1424.6016"/><line style="stroke:#000000;stroke-width:1;" x1="1224.5" x2="1224.5" y1="1369.6406" y2="1424.6016"/><text fill="#000000" font-family="sans-serif" font-size="14" lengthAdjust="spacing" textLength="3.7803" x="1012.6406" y="1441.2031">&#160;</text><text fill="#000000" font-family="sans-serif" font-size="14" font-weight="bold" lengthAdjust="spacing" textLength="14.4375" x="1016.3047" y="1461.5234">&#33394;</text><text fill="#000000" font-family="sans-serif" font-size="14" font-weight="bold" lengthAdjust="spacing" textLength="57.75" x="1038.0703" y="1461.5234">&#12524;&#12452;&#12516;&#12540;</text><rect fill="#FFE6E6" height="18.3203" style="stroke:none;stroke-width:1;" width="21.7656" x="1012.6406" y="1465.2422"/><text fill="#000000" font-family="sans-serif" font-size="14" lengthAdjust="spacing" textLength="3.7803" x="1012.6406" y="1479.8438">&#160;</text><text fill="#000000" font-family="sans-serif" font-size="14" lengthAdjust="spacing" textLength="63.4854" x="1038.0703" y="1479.8438">Hardware</text><rect fill="#E6F3FF" height="18.3203" style="stroke:none;stroke-width:1;" width="21.7656" x="1012.6406" y="1483.5625"/><text fill="#000000" font-family="sans-serif" font-size="14" lengthAdjust="spacing" textLength="3.7803" x="1012.6406" y="1498.1641">&#160;</text><text fill="#000000" font-family="sans-serif" font-size="14" lengthAdjust="spacing" textLength="51.085" x="1038.0703" y="1498.1641">Sensing</text><rect fill="#FFF9E6" height="18.3203" style="stroke:none;stroke-width:1;" width="21.7656" x="1012.6406" y="1501.8828"/><text fill="#000000" font-family="sans-serif" font-size="14" lengthAdjust="spacing" textLength="3.7803" x="1012.6406" y="1516.4844">&#160;</text><text fill="#000000" font-family="sans-serif" font-size="14" lengthAdjust="spacing" textLength="57.0938" x="1038.0703" y="1516.4844">Planning</text><rect fill="#E6FFE6" height="18.3203" style="stroke:none;stroke-width:1;" width="21.7656" x="1012.6406" y="1520.2031"/><text fill="#000000" font-family="sans-serif" font-size="14" lengthAdjust="spacing" textLength="3.7803" x="1012.6406" y="1534.8047">&#160;</text><text fill="#000000" font-family="sans-serif" font-size="14" lengthAdjust="spacing" textLength="49.3281" x="1038.0703" y="1534.8047">Control</text><rect fill="#F3E6FF" height="18.3203" style="stroke:none;stroke-width:1;" width="21.7656" x="1012.6406" y="1538.5234"/><text fill="#000000" font-family="sans-serif" font-size="14" lengthAdjust="spacing" textLength="3.7803" x="1012.6406" y="1553.125">&#160;</text><text fill="#000000" font-family="sans-serif" font-size="14" lengthAdjust="spacing" textLength="57.1143" x="1038.0703" y="1553.125">Decision</text><rect fill="#E6E6E6" height="18.3203" style="stroke:none;stroke-width:1;" width="21.7656" x="1012.6406" y="1556.8438"/><text fill="#000000" font-family="sans-serif" font-size="14" lengthAdjust="spacing" textLength="3.7803" x="1012.6406" y="1571.4453">&#160;</text><text fill="#000000" font-family="sans-serif" font-size="14" lengthAdjust="spacing" textLength="72.4609" x="1038.0703" y="1571.4453">Framework</text><line style="stroke:#000000;stroke-width:1;" x1="1012.6406" x2="1114.1953" y1="1446.9219" y2="1446.9219"/><line style="stroke:#000000;stroke-width:1;" x1="1012.6406" x2="1114.1953" y1="1465.2422" y2="1465.2422"/><line style="stroke:#000000;stroke-width:1;" x1="1012.6406" x2="1114.1953" y1="1483.5625" y2="1483.5625"/><line style="stroke:#000000;stroke-width:1;" x1="1012.6406" x2="1114.1953" y1="1501.8828" y2="1501.8828"/><line style="stroke:#000000;stroke-width:1;" x1="1012.6406" x2="1114.1953" y1="1520.2031" y2="1520.2031"/><line style="stroke:#000000;stroke-width:1;" x1="1012.6406" x2="1114.1953" y1="1538.5234" y2="1538.5234"/><line style="stroke:#000000;stroke-width:1;" x1="1012.6406" x2="1114.1953" y1="1556.8438" y2="1556.8438"/><line style="stroke:#000000;stroke-width:1;" x1="1012.6406" x2="1114.1953" y1="1575.1641" y2="1575.1641"/><line style="stroke:#000000;stroke-width:1;" x1="1012.6406" x2="1012.6406" y1="1446.9219" y2="1575.1641"/><line style="stroke:#000000;stroke-width:1;" x1="1034.4063" x2="1034.4063" y1="1446.9219" y2="1575.1641"/><line style="stroke:#000000;stroke-width:1;" x1="1114.1953" x2="1114.1953" y1="1446.9219" y2="1575.1641"/></g><!--SRC=[XLPhJzj85FtkNp7gVbY2e0yX8MsqMoa5Ho0HWaYMxagLLYPnmIBOaMCAL7mWyV8Cpwg0MYYFy8fs5qgt3sZJad_G_GyrOuT_iNTcRCSEaOeG3hxddBbpxvmxoGn9SbfGXM7KBoI61bHbH4wsAIb5HJ-4wG-NSH49PJYjoAAinRJnb8XKCQ49ya1AvBWVKPiJot0k3Drg4uP5LVYsklj8Ri1pY-RwHqCluQdPobydHhOSk8M436eBHVu8zqQxusH5lfLlhIUm1mALe_pLHTx8BHhP3P2fb5VDfSEgHdlqONSzYSx8hnG3pthXYAB1PdaveIH5bGBvxZONw4NsIHb9aH_94IKvaX8fjAyprXc5LVdMS0kKoWEE9fLXKLF7VV1eUpHI3zob98IKz5JGQlMxecsXBfVXIrj8foLvm8UEX7fertxoxv0VIqC_Ruhpl_LqHNlvUfGUGHj4FIb1bclNw0d5Erp63KfOIQMKqLfEEDhL5Nr8jn6-KNp82WwFhAbAoh-PQDmfRGqffWdzKjronUAX1owZXgA901LaOS3kCc3ZPEyj1ExBISgmFjjPfMn2f3F6cdsJ4XCUYvg_rR5Gc8__xeBzoOZfjAWIE1ozZBFRQ6_TKzSh2WbDUWBPyq_8YmSZZC7tySGo15zRKra2NTg4K4yd1SFJXO9P8u8aewIW2UWnj0irevWePu30LRtOt7pVETr1nAnhFIzXVPauUJzhP4-hDkPS-_bOL-NNrlQPos9-DG-sh9r3EWMAe8bNLWCSSIPXKdl0QlExrvCx-DCHe8pSXQ7l6xa3Gpy1ZNjtxtOy3N34eLx2vdQbL33NpZZENfm4cNSWkf-5HV7C9rEVmhjlI2Rdhwut2sI473-3PG8SrV5opAKYFdrvzMNH-d8AXB4cDDw4lbu4wXRFyGd7s4I7E368hELBl5LaAcJ7nsMSB_ZaFEao2adMIHEgZYyNyFaHNduRu4YSu1pN1b6bV5uvVstesuQk6_e6AK_hsBtMwwb5FBjH9L37VXVjo7eOvbB1UbUmDa_DuWk06xbtXlxPqF_6duxXJVrQs9xXg0JHihqFnQ0wrli5o89iZehGfQjbguA_MpaRIYl79eMp13ix0Eu3T1_0_vkh7Z4w8Q3CLD3GPyYEScK04wCteRIa9GPX3M4qm56eJx-olsMUxEF90y1_VKvaxP2D0WS7aQ4Nc2ZyDHTchae4tL8fmJbUXU8PkO-qSkrYWbudj72SCrli5EEalTRy1tCgVvqzjuvBhX3hoHrpQzBQEQ4vnlcQOy4Wr-jvV9o_WxEGSi63StfB1LWtAaTPyqsE9CNc64k9TUNsxVlEA0D3qtvOQsVuueBvs3d0FfYHAndwMoFt7Yh0m9mT8p2dJjRvl3bvQES7QxFfrZ-IOSjxXDca2wBqI7zAoWoo0SGiJGV32xAQFXlmf7oJmd8tDz-PwsT-5l59VOvhbdeqLjBwHDOwV307H3-BOGcBZEGWoepqPnAgr2-INKqL_M0k9Gw8SXAfqi2WnY4qyGjKxQLLF2MVp3-NyUfRD47U8tow0n7qRVeP_7DrKOAMkeVRqDTWUCBd1hooO6xj16oEbVj8E2IN2UHT64R2LNcluVhLTfN0Lg_C_KiUXluFnSFlPrliP_lg8beTWfeS5LJH3R6lBoHatpCU4laUGIBE4FMImYnapvGgYLwf9EAQg4foaWZ35rPnL56780OrP9NaE5dHH78XTjy3HcCZdls0B_VmQX6ssTW8hs3Oi0iBpnnPAzD1r08N3djldo1wCmGHlObOmEju9WZX8ITgUwmu2xf1VvsFft5-ZMI7I5hS_m00]--></g></svg>