<?xml version="1.0" encoding="UTF-8"?>
<svg xmlns="http://www.w3.org/2000/svg" viewBox="0 0 320 320" width="320" height="320">

  <!-- Background -->
  <rect width="320" height="320" fill="#f8f8f8"/>

  <!-- Surrounding cells (faded) -->
  <!-- Top cell -->
  <rect x="80" y="20" width="160" height="80" fill="#e0e0e0" stroke="#cccccc" stroke-width="1" stroke-dasharray="4,3"/>
  <!-- Left cell -->
  <rect x="0" y="100" width="80" height="160" fill="#e0e0e0" stroke="#cccccc" stroke-width="1" stroke-dasharray="4,3"/>
  <!-- Right cell -->
  <rect x="240" y="100" width="80" height="160" fill="#e0e0e0" stroke="#cccccc" stroke-width="1" stroke-dasharray="4,3"/>
  <!-- Bottom cell -->
  <rect x="80" y="260" width="160" height="80" fill="#eeeeee" stroke="#cccccc" stroke-width="1" stroke-dasharray="4,3"/>

  <!-- Center cell (main) -->
  <rect x="80" y="100" width="160" height="160" fill="#ffffff"/>

  <!-- Walls (3 sides: top, left, right) -->
  <!-- Top wall -->
  <line x1="80" y1="100" x2="240" y2="100" stroke="#222222" stroke-width="8" stroke-linecap="square"/>
  <!-- Left wall -->
  <line x1="80" y1="100" x2="80" y2="260" stroke="#222222" stroke-width="8" stroke-linecap="square"/>
  <!-- Right wall -->
  <line x1="240" y1="100" x2="240" y2="260" stroke="#222222" stroke-width="8" stroke-linecap="square"/>

  <!-- Opening indicator (bottom - no wall) -->
  <line x1="80" y1="260" x2="105" y2="260" stroke="#bbbbbb" stroke-width="2" stroke-dasharray="4,4"/>
  <line x1="215" y1="260" x2="240" y2="260" stroke="#bbbbbb" stroke-width="2" stroke-dasharray="4,4"/>

  <!-- Robot (omni-wheel mouse, rotated 180°) -->
  <g transform="rotate(180, 160, 178)">
    <circle cx="160" cy="178" r="28" fill="#4a90d9" fill-opacity="0.15" stroke="#4a90d9" stroke-width="2"/>
    <!-- Wheels (3 omni wheels, 120° apart) -->
    <!-- Wheel 1 (top) -->
    <rect x="150" y="142" width="20" height="8" rx="3" fill="#4a90d9" transform="rotate(0, 160, 146)"/>
    <!-- Wheel 2 (bottom-right) -->
    <rect x="150" y="142" width="20" height="8" rx="3" fill="#4a90d9" transform="rotate(120, 160, 178)"/>
    <!-- Wheel 3 (bottom-left) -->
    <rect x="150" y="142" width="20" height="8" rx="3" fill="#4a90d9" transform="rotate(240, 160, 178)"/>
    <!-- Center dot -->
    <circle cx="160" cy="178" r="4" fill="#4a90d9"/>
  </g>

  <!-- Direction arrow (pointing down = open side) -->
  <line x1="160" y1="215" x2="160" y2="248" stroke="#e06030" stroke-width="2.5" stroke-dasharray="5,3"/>
  <polygon points="160,254 155,244 165,244" fill="#e06030"/>

  <!-- Labels -->
  <text x="160" y="90" text-anchor="middle" font-family="monospace" font-size="11" fill="#888888">壁</text>
  <text x="45" y="185" text-anchor="middle" font-family="monospace" font-size="11" fill="#888888">壁</text>
  <text x="275" y="185" text-anchor="middle" font-family="monospace" font-size="11" fill="#888888">壁</text>
  <text x="160" y="292" text-anchor="middle" font-family="monospace" font-size="11" fill="#e06030">通路</text>

  <!-- Cell coordinate hint -->
  <text x="160" y="316" text-anchor="middle" font-family="monospace" font-size="9" fill="#aaaaaa">迷路の1マス (3方向に壁)</text>

</svg>
