<svg xmlns="http://www.w3.org/2000/svg" xmlns:xlink="http://www.w3.org/1999/xlink" contentStyleType="text/css" data-diagram-type="DESCRIPTION" height="679px" preserveAspectRatio="none" style="width:2092px;height:679px;background:#FFFFFF;" version="1.1" viewBox="0 0 2092 679" width="2092px" zoomAndPan="magnify"><defs/><g><!--cluster Decision Layer--><g class="cluster" data-entity="Decision Layer" data-source-line="14" data-uid="ent0002" id="cluster_Decision Layer"><rect fill="#F3E6FF" height="101" rx="2.5" ry="2.5" style="stroke:#181818;stroke-width:1;" width="949" x="49" y="13.5"/><text fill="#000000" font-family="sans-serif" font-size="14" font-weight="bold" lengthAdjust="spacing" textLength="101.5615" x="472.7192" y="30.1016">Decision Layer</text></g><!--cluster Planning Layer--><g class="cluster" data-entity="Planning Layer" data-source-line="35" data-uid="ent0015" id="cluster_Planning Layer"><rect fill="#FFF9E6" height="114" rx="2.5" ry="2.5" style="stroke:#181818;stroke-width:1;" width="1033" x="26" y="145"/><text fill="#000000" font-family="sans-serif" font-size="14" font-weight="bold" lengthAdjust="spacing" textLength="101.541" x="491.7295" y="161.6016">Planning Layer</text></g><!--cluster Control Layer--><g class="cluster" data-entity="Control Layer" data-source-line="58" data-uid="ent0028" id="cluster_Control Layer"><rect fill="#E6FFE6" height="114" rx="2.5" ry="2.5" style="stroke:#181818;stroke-width:1;" width="924" x="28" y="283"/><text fill="#000000" font-family="sans-serif" font-size="14" font-weight="bold" lengthAdjust="spacing" textLength="93.3379" x="443.3311" y="299.6016">Control Layer</text></g><!--cluster Sensing Layer--><g class="cluster" data-entity="Sensing Layer" data-source-line="75" data-uid="ent0038" id="cluster_Sensing Layer"><rect fill="#E6F3FF" height="114" rx="2.5" ry="2.5" style="stroke:#181818;stroke-width:1;" width="864" x="36" y="421"/><text fill="#000000" font-family="sans-serif" font-size="14" font-weight="bold" lengthAdjust="spacing" textLength="95.0947" x="420.4526" y="437.6016">Sensing Layer</text></g><!--cluster Hardware Layer--><g class="cluster" data-entity="Hardware Layer" data-source-line="92" data-uid="ent0048" id="cluster_Hardware Layer"><rect fill="#FFE6E6" height="114" rx="2.5" ry="2.5" style="stroke:#181818;stroke-width:1;" width="1827" x="7" y="559"/><text fill="#000000" font-family="sans-serif" font-size="14" font-weight="bold" lengthAdjust="spacing" textLength="107.9326" x="866.5337" y="575.6016">Hardware Layer</text></g><!--cluster FRAMEWORK_PKG--><g class="cluster" data-entity="FRAMEWORK_PKG" data-source-line="123" data-uid="ent0066" id="cluster_FRAMEWORK_PKG"><rect fill="#E6E6E6" height="114" rx="2.5" ry="2.5" style="stroke:#181818;stroke-width:1;" width="1064" x="1022" y="7"/><text fill="#000000" font-family="sans-serif" font-size="14" font-weight="bold" lengthAdjust="spacing" textLength="249.6416" x="1429.1792" y="23.6016">Spring WebFlux Layer (&#27178;&#26029;&#30340;&#38306;&#24515;&#20107;)</text></g><!--entity STATE--><g class="entity" data-entity="STATE" data-source-line="15" data-uid="ent0003" id="entity_STATE"><rect fill="#F1F1F1" height="48.3203" rx="2.5" ry="2.5" style="stroke:#181818;stroke-width:0.5;" width="130.9385" x="677.5" y="50.5"/><rect fill="#F1F1F1" height="10" style="stroke:#181818;stroke-width:0.5;" width="15" x="788.4385" y="55.5"/><rect fill="#F1F1F1" height="2" style="stroke:#181818;stroke-width:0.5;" width="4" x="786.4385" y="57.5"/><rect fill="#F1F1F1" height="2" style="stroke:#181818;stroke-width:0.5;" width="4" x="786.4385" y="61.5"/><text fill="#000000" font-family="sans-serif" font-size="14" lengthAdjust="spacing" textLength="90.9385" x="692.5" y="85.1016">StateManager</text></g><!--entity MISSION--><g class="entity" data-entity="MISSION" data-source-line="16" data-uid="ent0004" id="entity_MISSION"><rect fill="#F1F1F1" height="48.3203" rx="2.5" ry="2.5" style="stroke:#181818;stroke-width:0.5;" width="156.2861" x="339" y="50.5"/><rect fill="#F1F1F1" height="10" style="stroke:#181818;stroke-width:0.5;" width="15" x="475.2861" y="55.5"/><rect fill="#F1F1F1" height="2" style="stroke:#181818;stroke-width:0.5;" width="4" x="473.2861" y="57.5"/><rect fill="#F1F1F1" height="2" style="stroke:#181818;stroke-width:0.5;" width="4" x="473.2861" y="61.5"/><text fill="#000000" font-family="sans-serif" font-size="14" lengthAdjust="spacing" textLength="116.2861" x="354" y="85.1016">MissionController</text></g><!--entity SAFETY--><g class="entity" data-entity="SAFETY" data-source-line="17" data-uid="ent0005" id="entity_SAFETY"><rect fill="#F1F1F1" height="48.3203" rx="2.5" ry="2.5" style="stroke:#181818;stroke-width:0.5;" width="129.8926" x="65" y="50.5"/><rect fill="#F1F1F1" height="10" style="stroke:#181818;stroke-width:0.5;" width="15" x="174.8926" y="55.5"/><rect fill="#F1F1F1" height="2" style="stroke:#181818;stroke-width:0.5;" width="4" x="172.8926" y="57.5"/><rect fill="#F1F1F1" height="2" style="stroke:#181818;stroke-width:0.5;" width="4" x="172.8926" y="61.5"/><text fill="#000000" font-family="sans-serif" font-size="14" lengthAdjust="spacing" textLength="89.8926" x="80" y="85.1016">SafetyModule</text></g><g class="entity" data-entity="GMN6" data-source-line="20" data-uid="ent0007" id="entity_GMN6"><path d="M844,52.5 L844,70.5 L808.74,74.5 L844,78.5 L844,96.5234 A0,0 0 0 0 844,96.5234 L982,96.5234 A0,0 0 0 0 982,96.5234 L982,62.5 L972,52.5 L844,52.5 A0,0 0 0 0 844,52.5" fill="#FEFFDD" style="stroke:#181818;stroke-width:0.5;"/><path d="M972,52.5 L972,62.5 L982,62.5 L972,52.5" fill="#FEFFDD" style="stroke:#181818;stroke-width:0.5;"/><text fill="#000000" font-family="sans-serif" font-size="13" lengthAdjust="spacing" textLength="52" x="850" y="71.0586">&#29366;&#24907;&#31649;&#29702;</text><text fill="#000000" font-family="sans-serif" font-size="13" lengthAdjust="spacing" textLength="117" x="850" y="88.0703">&#24453;&#27231;/&#25506;&#32034;/&#26368;&#30701;&#36208;&#34892;</text></g><g class="entity" data-entity="GMN9" data-source-line="25" data-uid="ent0010" id="entity_GMN9"><path d="M530,52.5 L530,70.5 L495.23,74.5 L530,78.5 L530,96.5234 A0,0 0 0 0 530,96.5234 L642,96.5234 A0,0 0 0 0 642,96.5234 L642,62.5 L632,52.5 L530,52.5 A0,0 0 0 0 530,52.5" fill="#FEFFDD" style="stroke:#181818;stroke-width:0.5;"/><path d="M632,52.5 L632,62.5 L642,62.5 L632,52.5" fill="#FEFFDD" style="stroke:#181818;stroke-width:0.5;"/><text fill="#000000" font-family="sans-serif" font-size="13" lengthAdjust="spacing" textLength="91" x="536" y="71.0586">&#20840;&#20307;&#12501;&#12525;&#12540;&#21046;&#24481;</text><text fill="#000000" font-family="sans-serif" font-size="13" lengthAdjust="spacing" textLength="91" x="536" y="88.0703">&#12471;&#12540;&#12465;&#12531;&#12473;&#31649;&#29702;</text></g><g class="entity" data-entity="GMN12" data-source-line="30" data-uid="ent0013" id="entity_GMN12"><path d="M230.5,52.5 L230.5,70.5 L195.02,74.5 L230.5,78.5 L230.5,96.5234 A0,0 0 0 0 230.5,96.5234 L303.5,96.5234 A0,0 0 0 0 303.5,96.5234 L303.5,62.5 L293.5,52.5 L230.5,52.5 A0,0 0 0 0 230.5,52.5" fill="#FEFFDD" style="stroke:#181818;stroke-width:0.5;"/><path d="M293.5,52.5 L293.5,62.5 L303.5,62.5 L293.5,52.5" fill="#FEFFDD" style="stroke:#181818;stroke-width:0.5;"/><text fill="#000000" font-family="sans-serif" font-size="13" lengthAdjust="spacing" textLength="52" x="236.5" y="71.0586">&#30064;&#24120;&#26908;&#30693;</text><text fill="#000000" font-family="sans-serif" font-size="13" lengthAdjust="spacing" textLength="52" x="236.5" y="88.0703">&#32202;&#24613;&#20572;&#27490;</text></g><!--entity MAP--><g class="entity" data-entity="MAP" data-source-line="36" data-uid="ent0016" id="entity_MAP"><rect fill="#F1F1F1" height="48.3203" rx="2.5" ry="2.5" style="stroke:#181818;stroke-width:0.5;" width="147.7412" x="722" y="188.5"/><rect fill="#F1F1F1" height="10" style="stroke:#181818;stroke-width:0.5;" width="15" x="849.7412" y="193.5"/><rect fill="#F1F1F1" height="2" style="stroke:#181818;stroke-width:0.5;" width="4" x="847.7412" y="195.5"/><rect fill="#F1F1F1" height="2" style="stroke:#181818;stroke-width:0.5;" width="4" x="847.7412" y="199.5"/><text fill="#000000" font-family="sans-serif" font-size="14" lengthAdjust="spacing" textLength="107.7412" x="737" y="223.1016">MappingModule</text></g><!--entity EXPLORE--><g class="entity" data-entity="EXPLORE" data-source-line="37" data-uid="ent0017" id="entity_EXPLORE"><rect fill="#F1F1F1" height="48.3203" rx="2.5" ry="2.5" style="stroke:#181818;stroke-width:0.5;" width="164.5439" x="400.5" y="188.5"/><rect fill="#F1F1F1" height="10" style="stroke:#181818;stroke-width:0.5;" width="15" x="545.0439" y="193.5"/><rect fill="#F1F1F1" height="2" style="stroke:#181818;stroke-width:0.5;" width="4" x="543.0439" y="195.5"/><rect fill="#F1F1F1" height="2" style="stroke:#181818;stroke-width:0.5;" width="4" x="543.0439" y="199.5"/><text fill="#000000" font-family="sans-serif" font-size="14" lengthAdjust="spacing" textLength="124.5439" x="415.5" y="223.1016">ExplorationModule</text></g><!--entity PATH--><g class="entity" data-entity="PATH" data-source-line="38" data-uid="ent0018" id="entity_PATH"><rect fill="#F1F1F1" height="48.3203" rx="2.5" ry="2.5" style="stroke:#181818;stroke-width:0.5;" width="176.8486" x="41.5" y="188.5"/><rect fill="#F1F1F1" height="10" style="stroke:#181818;stroke-width:0.5;" width="15" x="198.3486" y="193.5"/><rect fill="#F1F1F1" height="2" style="stroke:#181818;stroke-width:0.5;" width="4" x="196.3486" y="195.5"/><rect fill="#F1F1F1" height="2" style="stroke:#181818;stroke-width:0.5;" width="4" x="196.3486" y="199.5"/><text fill="#000000" font-family="sans-serif" font-size="14" lengthAdjust="spacing" textLength="136.8486" x="56.5" y="223.1016">PathPlanningModule</text></g><g class="entity" data-entity="GMN19" data-source-line="41" data-uid="ent0020" id="entity_GMN19"><path d="M905,190.5 L905,208.5 L870.05,212.5 L905,216.5 L905,234.5234 A0,0 0 0 0 905,234.5234 L1043.1079,234.5234 A0,0 0 0 0 1043.1079,234.5234 L1043.1079,200.5 L1033.1079,190.5 L905,190.5 A0,0 0 0 0 905,190.5" fill="#FEFFDD" style="stroke:#181818;stroke-width:0.5;"/><path d="M1033.1079,190.5 L1033.1079,200.5 L1043.1079,200.5 L1033.1079,190.5" fill="#FEFFDD" style="stroke:#181818;stroke-width:0.5;"/><text fill="#000000" font-family="sans-serif" font-size="13" lengthAdjust="spacing" textLength="91" x="911" y="209.0586">&#36855;&#36335;&#12510;&#12483;&#12503;&#27083;&#31689;</text><text fill="#000000" font-family="sans-serif" font-size="13" lengthAdjust="spacing" textLength="117.1079" x="911" y="226.0703">16x16&#12464;&#12522;&#12483;&#12489;&#31649;&#29702;</text></g><g class="entity" data-entity="GMN22" data-source-line="46" data-uid="ent0023" id="entity_GMN22"><path d="M601,182 L601,208.5 L565.7,212.5 L601,216.5 L601,243.0352 A0,0 0 0 0 601,243.0352 L687,243.0352 A0,0 0 0 0 687,243.0352 L687,192 L677,182 L601,182 A0,0 0 0 0 601,182" fill="#FEFFDD" style="stroke:#181818;stroke-width:0.5;"/><path d="M677,182 L677,192 L687,192 L677,182" fill="#FEFFDD" style="stroke:#181818;stroke-width:0.5;"/><text fill="#000000" font-family="sans-serif" font-size="13" lengthAdjust="spacing" textLength="52" x="607" y="200.5586">&#25506;&#32034;&#25126;&#30053;</text><text fill="#000000" font-family="sans-serif" font-size="13" lengthAdjust="spacing" textLength="65" x="607" y="217.5703">&#24133;&#20778;&#20808;&#25506;&#32034;</text><text fill="#000000" font-family="sans-serif" font-size="13" lengthAdjust="spacing" textLength="39" x="607" y="234.582">&#36275;&#31435;&#27861;</text></g><g class="entity" data-entity="GMN25" data-source-line="52" data-uid="ent0026" id="entity_GMN25"><path d="M253,182 L253,208.5 L218.8,212.5 L253,216.5 L253,243.0352 A0,0 0 0 0 253,243.0352 L365.0952,243.0352 A0,0 0 0 0 365.0952,243.0352 L365.0952,192 L355.0952,182 L253,182 A0,0 0 0 0 253,182" fill="#FEFFDD" style="stroke:#181818;stroke-width:0.5;"/><path d="M355.0952,182 L355.0952,192 L365.0952,192 L355.0952,182" fill="#FEFFDD" style="stroke:#181818;stroke-width:0.5;"/><text fill="#000000" font-family="sans-serif" font-size="13" lengthAdjust="spacing" textLength="78" x="259" y="200.5586">&#26368;&#30701;&#32076;&#36335;&#35336;&#31639;</text><text fill="#000000" font-family="sans-serif" font-size="13" lengthAdjust="spacing" textLength="91.0952" x="259" y="217.5703">A*&#12450;&#12523;&#12468;&#12522;&#12474;&#12512;</text><text fill="#000000" font-family="sans-serif" font-size="13" lengthAdjust="spacing" textLength="91" x="259" y="234.582">&#12480;&#12452;&#12463;&#12473;&#12488;&#12521;&#27861;</text></g><!--entity MOTION--><g class="entity" data-entity="MOTION" data-source-line="59" data-uid="ent0029" id="entity_MOTION"><rect fill="#F1F1F1" height="48.3203" rx="2.5" ry="2.5" style="stroke:#181818;stroke-width:0.5;" width="185.9678" x="603" y="326.5"/><rect fill="#F1F1F1" height="10" style="stroke:#181818;stroke-width:0.5;" width="15" x="768.9678" y="331.5"/><rect fill="#F1F1F1" height="2" style="stroke:#181818;stroke-width:0.5;" width="4" x="766.9678" y="333.5"/><rect fill="#F1F1F1" height="2" style="stroke:#181818;stroke-width:0.5;" width="4" x="766.9678" y="337.5"/><text fill="#000000" font-family="sans-serif" font-size="14" lengthAdjust="spacing" textLength="145.9678" x="618" y="361.1016">MotionControlModule</text></g><!--entity FOLLOW--><g class="entity" data-entity="FOLLOW" data-source-line="60" data-uid="ent0030" id="entity_FOLLOW"><rect fill="#F1F1F1" height="48.3203" rx="2.5" ry="2.5" style="stroke:#181818;stroke-width:0.5;" width="182.7686" x="250.5" y="326.5"/><rect fill="#F1F1F1" height="10" style="stroke:#181818;stroke-width:0.5;" width="15" x="413.2686" y="331.5"/><rect fill="#F1F1F1" height="2" style="stroke:#181818;stroke-width:0.5;" width="4" x="411.2686" y="333.5"/><rect fill="#F1F1F1" height="2" style="stroke:#181818;stroke-width:0.5;" width="4" x="411.2686" y="337.5"/><text fill="#000000" font-family="sans-serif" font-size="14" lengthAdjust="spacing" textLength="142.7686" x="265.5" y="361.1016">PathFollowingModule</text></g><!--entity STAB--><g class="entity" data-entity="STAB" data-source-line="61" data-uid="ent0031" id="entity_STAB"><rect fill="#F1F1F1" height="48.3203" rx="2.5" ry="2.5" style="stroke:#181818;stroke-width:0.5;" width="170.6895" x="44.5" y="326.5"/><rect fill="#F1F1F1" height="10" style="stroke:#181818;stroke-width:0.5;" width="15" x="195.1895" y="331.5"/><rect fill="#F1F1F1" height="2" style="stroke:#181818;stroke-width:0.5;" width="4" x="193.1895" y="333.5"/><rect fill="#F1F1F1" height="2" style="stroke:#181818;stroke-width:0.5;" width="4" x="193.1895" y="337.5"/><text fill="#000000" font-family="sans-serif" font-size="14" lengthAdjust="spacing" textLength="130.6895" x="59.5" y="361.1016">StabilizationModule</text></g><g class="entity" data-entity="GMN32" data-source-line="64" data-uid="ent0033" id="entity_GMN32"><path d="M824,320 L824,346.5 L789.08,350.5 L824,354.5 L824,381.0352 A0,0 0 0 0 824,381.0352 L936,381.0352 A0,0 0 0 0 936,381.0352 L936,330 L926,320 L824,320 A0,0 0 0 0 824,320" fill="#FEFFDD" style="stroke:#181818;stroke-width:0.5;"/><path d="M926,320 L926,330 L936,330 L926,320" fill="#FEFFDD" style="stroke:#181818;stroke-width:0.5;"/><text fill="#000000" font-family="sans-serif" font-size="13" lengthAdjust="spacing" textLength="91" x="830" y="338.5586">&#12458;&#12512;&#12491;&#12507;&#12452;&#12540;&#12523;</text><text fill="#000000" font-family="sans-serif" font-size="13" lengthAdjust="spacing" textLength="78" x="830" y="355.5703">&#36870;&#36939;&#21205;&#23398;&#35336;&#31639;</text><text fill="#000000" font-family="sans-serif" font-size="13" lengthAdjust="spacing" textLength="73.1885" x="830" y="372.582">3&#36650;&#29420;&#31435;&#21046;&#24481;</text></g><g class="entity" data-entity="GMN35" data-source-line="70" data-uid="ent0036" id="entity_GMN35"><path d="M468.5,328.5 L468.5,346.5 L433.78,350.5 L468.5,354.5 L468.5,372.5234 A0,0 0 0 0 468.5,372.5234 L567.5,372.5234 A0,0 0 0 0 567.5,372.5234 L567.5,338.5 L557.5,328.5 L468.5,328.5 A0,0 0 0 0 468.5,328.5" fill="#FEFFDD" style="stroke:#181818;stroke-width:0.5;"/><path d="M557.5,328.5 L557.5,338.5 L567.5,338.5 L557.5,328.5" fill="#FEFFDD" style="stroke:#181818;stroke-width:0.5;"/><text fill="#000000" font-family="sans-serif" font-size="13" lengthAdjust="spacing" textLength="78" x="474.5" y="347.0586">&#32076;&#36335;&#36861;&#24467;&#21046;&#24481;</text><text fill="#000000" font-family="sans-serif" font-size="13" lengthAdjust="spacing" textLength="47.6709" x="474.5" y="364.0703">PID&#21046;&#24481;</text></g><!--entity VISION--><g class="entity" data-entity="VISION" data-source-line="76" data-uid="ent0039" id="entity_VISION"><rect fill="#F1F1F1" height="48.3203" rx="2.5" ry="2.5" style="stroke:#181818;stroke-width:0.5;" width="129.8789" x="633" y="464.5"/><rect fill="#F1F1F1" height="10" style="stroke:#181818;stroke-width:0.5;" width="15" x="742.8789" y="469.5"/><rect fill="#F1F1F1" height="2" style="stroke:#181818;stroke-width:0.5;" width="4" x="740.8789" y="471.5"/><rect fill="#F1F1F1" height="2" style="stroke:#181818;stroke-width:0.5;" width="4" x="740.8789" y="475.5"/><text fill="#000000" font-family="sans-serif" font-size="14" lengthAdjust="spacing" textLength="89.8789" x="648" y="499.1016">VisionModule</text></g><!--entity ODOM--><g class="entity" data-entity="ODOM" data-source-line="77" data-uid="ent0040" id="entity_ODOM"><rect fill="#F1F1F1" height="48.3203" rx="2.5" ry="2.5" style="stroke:#181818;stroke-width:0.5;" width="155.4453" x="52.5" y="464.5"/><rect fill="#F1F1F1" height="10" style="stroke:#181818;stroke-width:0.5;" width="15" x="187.9453" y="469.5"/><rect fill="#F1F1F1" height="2" style="stroke:#181818;stroke-width:0.5;" width="4" x="185.9453" y="471.5"/><rect fill="#F1F1F1" height="2" style="stroke:#181818;stroke-width:0.5;" width="4" x="185.9453" y="475.5"/><text fill="#000000" font-family="sans-serif" font-size="14" lengthAdjust="spacing" textLength="115.4453" x="67.5" y="499.1016">OdometryModule</text></g><!--entity LOCAL--><g class="entity" data-entity="LOCAL" data-source-line="78" data-uid="ent0041" id="entity_LOCAL"><rect fill="#F1F1F1" height="48.3203" rx="2.5" ry="2.5" style="stroke:#181818;stroke-width:0.5;" width="168.5703" x="242.5" y="464.5"/><rect fill="#F1F1F1" height="10" style="stroke:#181818;stroke-width:0.5;" width="15" x="391.0703" y="469.5"/><rect fill="#F1F1F1" height="2" style="stroke:#181818;stroke-width:0.5;" width="4" x="389.0703" y="471.5"/><rect fill="#F1F1F1" height="2" style="stroke:#181818;stroke-width:0.5;" width="4" x="389.0703" y="475.5"/><text fill="#000000" font-family="sans-serif" font-size="14" lengthAdjust="spacing" textLength="128.5703" x="257.5" y="499.1016">LocalizationModule</text></g><g class="entity" data-entity="GMN42" data-source-line="81" data-uid="ent0043" id="entity_GMN42"><path d="M798,458 L798,484.5 L763.08,488.5 L798,492.5 L798,519.0352 A0,0 0 0 0 798,519.0352 L884,519.0352 A0,0 0 0 0 884,519.0352 L884,468 L874,458 L798,458 A0,0 0 0 0 798,458" fill="#FEFFDD" style="stroke:#181818;stroke-width:0.5;"/><path d="M874,458 L874,468 L884,468 L874,458" fill="#FEFFDD" style="stroke:#181818;stroke-width:0.5;"/><text fill="#000000" font-family="sans-serif" font-size="13" lengthAdjust="spacing" textLength="52" x="804" y="476.5586">&#30011;&#20687;&#20966;&#29702;</text><text fill="#000000" font-family="sans-serif" font-size="13" lengthAdjust="spacing" textLength="39" x="804" y="493.5703">&#22721;&#26908;&#20986;</text><text fill="#000000" font-family="sans-serif" font-size="13" lengthAdjust="spacing" textLength="65" x="804" y="510.582">&#12456;&#12483;&#12472;&#25277;&#20986;</text></g><g class="entity" data-entity="GMN45" data-source-line="87" data-uid="ent0046" id="entity_GMN45"><path d="M446.5,466.5 L446.5,484.5 L411.55,488.5 L446.5,492.5 L446.5,510.5234 A0,0 0 0 0 446.5,510.5234 L597.5,510.5234 A0,0 0 0 0 597.5,510.5234 L597.5,476.5 L587.5,466.5 L446.5,466.5 A0,0 0 0 0 446.5,466.5" fill="#FEFFDD" style="stroke:#181818;stroke-width:0.5;"/><path d="M587.5,466.5 L587.5,476.5 L597.5,476.5 L587.5,466.5" fill="#FEFFDD" style="stroke:#181818;stroke-width:0.5;"/><text fill="#000000" font-family="sans-serif" font-size="13" lengthAdjust="spacing" textLength="130" x="452.5" y="485.0586">&#12475;&#12531;&#12469;&#12540;&#12501;&#12517;&#12540;&#12472;&#12519;&#12531;</text><text fill="#000000" font-family="sans-serif" font-size="13" lengthAdjust="spacing" textLength="91" x="452.5" y="502.0703">&#20301;&#32622;&#12539;&#23039;&#21218;&#25512;&#23450;</text></g><!--entity CAM_FRONT--><g class="entity" data-entity="CAM_FRONT" data-source-line="93" data-uid="ent0049" id="entity_CAM_FRONT"><rect fill="#F1F1F1" height="48.3203" rx="2.5" ry="2.5" style="stroke:#181818;stroke-width:0.5;" width="175.8506" x="1443" y="602.5"/><rect fill="#F1F1F1" height="10" style="stroke:#181818;stroke-width:0.5;" width="15" x="1598.8506" y="607.5"/><rect fill="#F1F1F1" height="2" style="stroke:#181818;stroke-width:0.5;" width="4" x="1596.8506" y="609.5"/><rect fill="#F1F1F1" height="2" style="stroke:#181818;stroke-width:0.5;" width="4" x="1596.8506" y="613.5"/><text fill="#000000" font-family="sans-serif" font-size="14" lengthAdjust="spacing" textLength="135.8506" x="1458" y="637.1016">FrontCameraModule</text></g><!--entity CAM_DOWN--><g class="entity" data-entity="CAM_DOWN" data-source-line="94" data-uid="ent0050" id="entity_CAM_DOWN"><rect fill="#F1F1F1" height="48.3203" rx="2.5" ry="2.5" style="stroke:#181818;stroke-width:0.5;" width="211.083" x="1010.5" y="602.5"/><rect fill="#F1F1F1" height="10" style="stroke:#181818;stroke-width:0.5;" width="15" x="1201.583" y="607.5"/><rect fill="#F1F1F1" height="2" style="stroke:#181818;stroke-width:0.5;" width="4" x="1199.583" y="609.5"/><rect fill="#F1F1F1" height="2" style="stroke:#181818;stroke-width:0.5;" width="4" x="1199.583" y="613.5"/><text fill="#000000" font-family="sans-serif" font-size="14" lengthAdjust="spacing" textLength="171.083" x="1025.5" y="637.1016">DownwardCameraModule</text></g><!--entity IMU--><g class="entity" data-entity="IMU" data-source-line="95" data-uid="ent0051" id="entity_IMU"><rect fill="#F1F1F1" height="48.3203" rx="2.5" ry="2.5" style="stroke:#181818;stroke-width:0.5;" width="117.1504" x="672.5" y="602.5"/><rect fill="#F1F1F1" height="10" style="stroke:#181818;stroke-width:0.5;" width="15" x="769.6504" y="607.5"/><rect fill="#F1F1F1" height="2" style="stroke:#181818;stroke-width:0.5;" width="4" x="767.6504" y="609.5"/><rect fill="#F1F1F1" height="2" style="stroke:#181818;stroke-width:0.5;" width="4" x="767.6504" y="613.5"/><text fill="#000000" font-family="sans-serif" font-size="14" lengthAdjust="spacing" textLength="77.1504" x="687.5" y="637.1016">IMUModule</text></g><!--entity MOTOR--><g class="entity" data-entity="MOTOR" data-source-line="96" data-uid="ent0052" id="entity_MOTOR"><rect fill="#F1F1F1" height="48.3203" rx="2.5" ry="2.5" style="stroke:#181818;stroke-width:0.5;" width="178.9131" x="272.5" y="602.5"/><rect fill="#F1F1F1" height="10" style="stroke:#181818;stroke-width:0.5;" width="15" x="431.4131" y="607.5"/><rect fill="#F1F1F1" height="2" style="stroke:#181818;stroke-width:0.5;" width="4" x="429.4131" y="609.5"/><rect fill="#F1F1F1" height="2" style="stroke:#181818;stroke-width:0.5;" width="4" x="429.4131" y="613.5"/><text fill="#000000" font-family="sans-serif" font-size="14" lengthAdjust="spacing" textLength="138.9131" x="287.5" y="637.1016">MotorControlModule</text></g><!--entity HAL--><g class="entity" data-entity="HAL" data-source-line="97" data-uid="ent0053" id="entity_HAL"><rect fill="#F1F1F1" height="48.3203" rx="2.5" ry="2.5" style="stroke:#181818;stroke-width:0.5;" width="213.585" x="23" y="602.5"/><rect fill="#F1F1F1" height="10" style="stroke:#181818;stroke-width:0.5;" width="15" x="216.585" y="607.5"/><rect fill="#F1F1F1" height="2" style="stroke:#181818;stroke-width:0.5;" width="4" x="214.585" y="609.5"/><rect fill="#F1F1F1" height="2" style="stroke:#181818;stroke-width:0.5;" width="4" x="214.585" y="613.5"/><text fill="#000000" font-family="sans-serif" font-size="14" lengthAdjust="spacing" textLength="173.585" x="38" y="637.1016">HardwareAbstractionLayer</text></g><g class="entity" data-entity="GMN54" data-source-line="100" data-uid="ent0055" id="entity_GMN54"><path d="M1654,596 L1654,622.5 L1619.09,626.5 L1654,630.5 L1654,657.0352 A0,0 0 0 0 1654,657.0352 L1818,657.0352 A0,0 0 0 0 1818,657.0352 L1818,606 L1808,596 L1654,596 A0,0 0 0 0 1654,596" fill="#FEFFDD" style="stroke:#181818;stroke-width:0.5;"/><path d="M1808,596 L1808,606 L1818,606 L1808,596" fill="#FEFFDD" style="stroke:#181818;stroke-width:0.5;"/><text fill="#000000" font-family="sans-serif" font-size="13" lengthAdjust="spacing" textLength="143" x="1660" y="614.5586">&#12459;&#12513;&#12521;&#9312;&#65288;&#21069;&#26041;&#12539;&#19978;&#37096;&#65289;</text><text fill="#000000" font-family="sans-serif" font-size="13" lengthAdjust="spacing" textLength="65" x="1660" y="631.5703">&#22721;&#12398;&#20808;&#35501;&#12415;</text><text fill="#000000" font-family="sans-serif" font-size="13" lengthAdjust="spacing" textLength="77.3906" x="1660" y="648.582">OpenCV&#36899;&#25658;</text></g><g class="entity" data-entity="GMN57" data-source-line="106" data-uid="ent0058" id="entity_GMN57"><path d="M1256.5,596 L1256.5,622.5 L1221.89,626.5 L1256.5,630.5 L1256.5,657.0352 A0,0 0 0 0 1256.5,657.0352 L1407.5,657.0352 A0,0 0 0 0 1407.5,657.0352 L1407.5,606 L1397.5,596 L1256.5,596 A0,0 0 0 0 1256.5,596" fill="#FEFFDD" style="stroke:#181818;stroke-width:0.5;"/><path d="M1397.5,596 L1397.5,606 L1407.5,606 L1397.5,596" fill="#FEFFDD" style="stroke:#181818;stroke-width:0.5;"/><text fill="#000000" font-family="sans-serif" font-size="13" lengthAdjust="spacing" textLength="130" x="1262.5" y="614.5586">&#12459;&#12513;&#12521;&#9313;&#65288;&#35211;&#19979;&#12429;&#12375;&#65289;</text><text fill="#000000" font-family="sans-serif" font-size="13" lengthAdjust="spacing" textLength="117" x="1262.5" y="631.5703">&#36817;&#25509;&#26908;&#30693;&#65288;&#20840;&#26041;&#21521;&#65289;</text><text fill="#000000" font-family="sans-serif" font-size="13" lengthAdjust="spacing" textLength="58.4619" x="1262.5" y="648.582">FOV 102&#176;</text></g><g class="entity" data-entity="GMN60" data-source-line="112" data-uid="ent0061" id="entity_GMN60"><path d="M824.5,604.5 L824.5,622.5 L789.75,626.5 L824.5,630.5 L824.5,648.5234 A0,0 0 0 0 824.5,648.5234 L975.5,648.5234 A0,0 0 0 0 975.5,648.5234 L975.5,614.5 L965.5,604.5 L824.5,604.5 A0,0 0 0 0 824.5,604.5" fill="#FEFFDD" style="stroke:#181818;stroke-width:0.5;"/><path d="M965.5,604.5 L965.5,614.5 L975.5,614.5 L965.5,604.5" fill="#FEFFDD" style="stroke:#181818;stroke-width:0.5;"/><text fill="#000000" font-family="sans-serif" font-size="13" lengthAdjust="spacing" textLength="73.3091" x="830.5" y="623.0586">I2C/SPI&#36890;&#20449;</text><text fill="#000000" font-family="sans-serif" font-size="13" lengthAdjust="spacing" textLength="130" x="830.5" y="640.0703">&#21152;&#36895;&#24230;&#12539;&#12472;&#12515;&#12452;&#12525;&#21462;&#24471;</text></g><g class="entity" data-entity="GMN63" data-source-line="117" data-uid="ent0064" id="entity_GMN63"><path d="M486.5,596 L486.5,622.5 L451.84,626.5 L486.5,630.5 L486.5,657.0352 A0,0 0 0 0 486.5,657.0352 L637.5,657.0352 A0,0 0 0 0 637.5,657.0352 L637.5,606 L627.5,596 L486.5,596 A0,0 0 0 0 486.5,596" fill="#FEFFDD" style="stroke:#181818;stroke-width:0.5;"/><path d="M627.5,596 L627.5,606 L637.5,606 L627.5,596" fill="#FEFFDD" style="stroke:#181818;stroke-width:0.5;"/><text fill="#000000" font-family="sans-serif" font-size="13" lengthAdjust="spacing" textLength="57.9795" x="492.5" y="614.5586">GPIO&#21046;&#24481;</text><text fill="#000000" font-family="sans-serif" font-size="13" lengthAdjust="spacing" textLength="130" x="492.5" y="631.5703">&#12473;&#12486;&#12483;&#12500;&#12531;&#12464;&#12514;&#12540;&#12479;&#12540;</text><text fill="#000000" font-family="sans-serif" font-size="13" lengthAdjust="spacing" textLength="65" x="492.5" y="648.582">&#12497;&#12523;&#12473;&#29983;&#25104;</text></g><!--entity EVENT--><g class="entity" data-entity="EVENT" data-source-line="124" data-uid="ent0067" id="entity_EVENT"><rect fill="#F1F1F1" height="48.3203" rx="2.5" ry="2.5" style="stroke:#181818;stroke-width:0.5;" width="156.293" x="1725" y="50.5"/><rect fill="#F1F1F1" height="10" style="stroke:#181818;stroke-width:0.5;" width="15" x="1861.293" y="55.5"/><rect fill="#F1F1F1" height="2" style="stroke:#181818;stroke-width:0.5;" width="4" x="1859.293" y="57.5"/><rect fill="#F1F1F1" height="2" style="stroke:#181818;stroke-width:0.5;" width="4" x="1859.293" y="61.5"/><text fill="#000000" font-family="sans-serif" font-size="14" lengthAdjust="spacing" textLength="116.293" x="1740" y="85.1016">ReactiveEventBus</text></g><!--entity API--><g class="entity" data-entity="API" data-source-line="125" data-uid="ent0068" id="entity_API"><rect fill="#F1F1F1" height="48.3203" rx="2.5" ry="2.5" style="stroke:#181818;stroke-width:0.5;" width="133.4746" x="1396.5" y="50.5"/><rect fill="#F1F1F1" height="10" style="stroke:#181818;stroke-width:0.5;" width="15" x="1509.9746" y="55.5"/><rect fill="#F1F1F1" height="2" style="stroke:#181818;stroke-width:0.5;" width="4" x="1507.9746" y="57.5"/><rect fill="#F1F1F1" height="2" style="stroke:#181818;stroke-width:0.5;" width="4" x="1507.9746" y="61.5"/><text fill="#000000" font-family="sans-serif" font-size="14" lengthAdjust="spacing" textLength="93.4746" x="1411.5" y="85.1016">MonitoringAPI</text></g><!--entity CONFIG--><g class="entity" data-entity="CONFIG" data-source-line="126" data-uid="ent0069" id="entity_CONFIG"><rect fill="#F1F1F1" height="48.3203" rx="2.5" ry="2.5" style="stroke:#181818;stroke-width:0.5;" width="177.2725" x="1037.5" y="50.5"/><rect fill="#F1F1F1" height="10" style="stroke:#181818;stroke-width:0.5;" width="15" x="1194.7725" y="55.5"/><rect fill="#F1F1F1" height="2" style="stroke:#181818;stroke-width:0.5;" width="4" x="1192.7725" y="57.5"/><rect fill="#F1F1F1" height="2" style="stroke:#181818;stroke-width:0.5;" width="4" x="1192.7725" y="61.5"/><text fill="#000000" font-family="sans-serif" font-size="14" lengthAdjust="spacing" textLength="137.2725" x="1052.5" y="85.1016">ConfigurationService</text></g><g class="entity" data-entity="GMN70" data-source-line="129" data-uid="ent0071" id="entity_GMN70"><path d="M1916.5,44 L1916.5,70.5 L1881.3,74.5 L1916.5,78.5 L1916.5,105.0352 A0,0 0 0 0 1916.5,105.0352 L2069.4297,105.0352 A0,0 0 0 0 2069.4297,105.0352 L2069.4297,54 L2059.4297,44 L1916.5,44 A0,0 0 0 0 1916.5,44" fill="#FEFFDD" style="stroke:#181818;stroke-width:0.5;"/><path d="M2059.4297,44 L2059.4297,54 L2069.4297,54 L2059.4297,44" fill="#FEFFDD" style="stroke:#181818;stroke-width:0.5;"/><text fill="#000000" font-family="sans-serif" font-size="13" lengthAdjust="spacing" textLength="73.2012" x="1922.5" y="62.5586">Reactor&#22522;&#30436;</text><text fill="#000000" font-family="sans-serif" font-size="13" lengthAdjust="spacing" textLength="117" x="1922.5" y="79.5703">&#38750;&#21516;&#26399;&#12452;&#12505;&#12531;&#12488;&#20966;&#29702;</text><text fill="#000000" font-family="sans-serif" font-size="13" lengthAdjust="spacing" textLength="131.9297" x="1922.5" y="96.582">Flux/Mono&#12473;&#12488;&#12522;&#12540;&#12512;</text></g><g class="entity" data-entity="GMN73" data-source-line="135" data-uid="ent0074" id="entity_GMN73"><path d="M1564.5,44 L1564.5,70.5 L1529.62,74.5 L1564.5,78.5 L1564.5,105.0352 A0,0 0 0 0 1564.5,105.0352 L1689.5,105.0352 A0,0 0 0 0 1689.5,105.0352 L1689.5,54 L1679.5,44 L1564.5,44 A0,0 0 0 0 1564.5,44" fill="#FEFFDD" style="stroke:#181818;stroke-width:0.5;"/><path d="M1679.5,44 L1679.5,54 L1689.5,54 L1679.5,44" fill="#FEFFDD" style="stroke:#181818;stroke-width:0.5;"/><text fill="#000000" font-family="sans-serif" font-size="13" lengthAdjust="spacing" textLength="55.0723" x="1570.5" y="62.5586">REST API</text><text fill="#000000" font-family="sans-serif" font-size="13" lengthAdjust="spacing" textLength="94.7324" x="1570.5" y="79.5703">WebSocket&#37197;&#20449;</text><text fill="#000000" font-family="sans-serif" font-size="13" lengthAdjust="spacing" textLength="104" x="1570.5" y="96.582">&#38283;&#30330;&#12539;&#12487;&#12496;&#12483;&#12464;&#29992;</text></g><g class="entity" data-entity="GMN76" data-source-line="141" data-uid="ent0077" id="entity_GMN76"><path d="M1249,52.5 L1249,70.5 L1214.8,74.5 L1249,78.5 L1249,96.5234 A0,0 0 0 0 1249,96.5234 L1361,96.5234 A0,0 0 0 0 1361,96.5234 L1361,62.5 L1351,52.5 L1249,52.5 A0,0 0 0 0 1249,52.5" fill="#FEFFDD" style="stroke:#181818;stroke-width:0.5;"/><path d="M1351,52.5 L1351,62.5 L1361,62.5 L1351,52.5" fill="#FEFFDD" style="stroke:#181818;stroke-width:0.5;"/><text fill="#000000" font-family="sans-serif" font-size="13" lengthAdjust="spacing" textLength="91" x="1255" y="71.0586">&#12497;&#12521;&#12513;&#12540;&#12479;&#31649;&#29702;</text><text fill="#000000" font-family="sans-serif" font-size="13" lengthAdjust="spacing" textLength="78" x="1255" y="88.0703">&#35373;&#23450;&#12398;&#27704;&#32154;&#21270;</text></g><!--link SAFETY to PATH--><!--link PATH to STAB--><!--link STAB to ODOM--><!--link ODOM to HAL--><!--SRC=[ZLPTJnj757tthvWa3sahHJI9XDINIewz2rPihsMxq2gAeiKUO1MpQwqN2Aqg6K-S60m9A7meXCRW1E90JQYIWCENfVoK3hDhF-KlT7RMQzOseBwivRbtxhrpphrdvaeS3aeo1BtkiBVV7UR0DPxdkhbkrvM68S858xvW3xZ6TVEtURwvxX62qR3WP-kymp_aTmU3R0FFypyv35xEuuluX20rt3RtD0rys1tW-eNmNJCMo-rAFPJafAYA8o0fnXwAGp2YJIGWK65C4-MX17IvhWDUKMCGZ45Las9Y0YJ42MLKSrrFm44DQ0fGfQ5X3SGbSu-ao2vN8nAuweKnAKMNW5-SWEhLiyB-S04GKqQIYWnb3ToBQA860w9CDwdtWPW2aQWxohNw1AIK6SgZo9gg918Dnu0lOWPi2oSEGcqYeCH74z0Av-Qvw6ykwYKh6cmKh0msqm1WJE_fsRonisxCFM4Bv2IhlozqwS-AngTYbxwQDWhbskVTsleCDKCvpY9rHZohXuR8bawFNs2qY54PeoEIsoCdwyo2C_jq0MV-mUWZpdnffhquRkC4hDJ5NLAfw6zNZSA6jR0_hQStoEIgNYuwW_pfO2AK46LPaeTi9fgzqyP4G4mcgPi3ku0xrEh2FKec55KqgNQuSR-6_4AuZREGg0tRcHs-8NUqznpeM280QjNzslu7Z5vZX31Qrj_bZGzJp7Ap-z7DRfpPnMYBsQR-1t1dTG5WaQddDer52pdo9KiURv5iph9OwVS-6jjv_UFYfM7P4LXCrXd6vnbQSwsKCtQMsRBx1vmfOhIDCv_CQZC76ArPrACqphp5cG-KTuno6BrlI-LahT7iDccs4BHpfcXdW-5aJeXsZ8R924_7HnblfOGN_7wXlsCg1wI4z7ixrNHgxfn3dvtDR6_Apnf6UOnUcOUbhOwscQMUVbAVp9Fy8YblEj2wNJlQCl9_KzoRGt8nzCrIQUTRi5UFoSaBntY5VDxEE4vS8r1EEOR15jusNFkOTZaEtkVhr1eXhen0JNMgZU0L0grEVeNgPYUGVi7ZzdSUi9c67d3XaA3dvEbcKvRUJDB99qyF6a2Np478LFJfOsljOjYiPDQkGwOxdnanL9qsc1XLC7f7rvdBwV6iSRo3qI5vLoNvelwiH7PMBaApLrJZuw8ARJYR5rmRdhnAMzGZZa1LT83WSGSUy67QsQtENcLSfa7Zv_fxXVus6do1Nnm-z5_7Y2ZgkHCYX5izxSEu1rAQAh8BZHsB-VUUHvVp02QusnYjqx7-Ttxjsr6EJCtgItJG3qyhqtLK-dOqPTE89tUeyDIsodYoojQ499GzVVNq6ttkSYOT2BJaMwVvQflvqqeUPsRnvBATh5QTrvzjM1U6MLAsH4iYS_EsdHVwmCqVRttTlJIhXIa0lbkUhaZ8Lq-ld5QjSIFJQ_LqWHniqcEoDdh3XhvCdY-Ha-NBhyi60G3qX7n2omr9GNl2L7w1DIiL_I9hqohzDfHqdWdi5sEXeEVcBfprf6gEUZySu1EZZwmU1T_ffIrzgMoiFAul5KaLdHxalx_ATD1-8Jq8tUrnl9VQMZaCpTOOWzmO_NjdD6LTWNrSUnS755cYdKSBS8Typ8d-jhhGhXoKXaQj2pK2rJ4frcXq8SZxUiwvqHff061LA2ef71Yltbhw-jThCZUZhnOO0ozDv53E8Hyc15sqACM-VRQO1gnTIf9LCat7HQBDFnJFY19x2BLwTjPkXFfItdXvO7O1UehH79EcNMEXT7atMyTiClgUjRD9jECrLYkLgG3HaT5tAyRU2fbPQgExuv6gg778Y1-Nj64WoMDKp0VempQcoBBrJasvh4SLk75lM8h7eNm_JZNdni_MtMv-EYpivZC_7HQc-UQdms9gndy0]--></g></svg>