<svg xmlns="http://www.w3.org/2000/svg" xmlns:xlink="http://www.w3.org/1999/xlink" contentStyleType="text/css" data-diagram-type="DESCRIPTION" height="679px" preserveAspectRatio="none" style="width:2092px;height:679px;background:#FFFFFF;" version="1.1" viewBox="0 0 2092 679" width="2092px" zoomAndPan="magnify"><defs/><g><!--cluster Decision Layer--><g class="cluster" data-entity="Decision Layer" data-source-line="14" data-uid="ent0002" id="cluster_Decision Layer"><rect fill="#F3E6FF" height="101" rx="2.5" ry="2.5" style="stroke:#181818;stroke-width:1;" width="949" x="49" y="13.5"/><text fill="#000000" font-family="sans-serif" font-size="14" font-weight="bold" lengthAdjust="spacing" textLength="101.5615" x="472.7192" y="30.1016">Decision Layer</text></g><!--cluster Planning Layer--><g class="cluster" data-entity="Planning Layer" data-source-line="35" data-uid="ent0015" id="cluster_Planning Layer"><rect fill="#FFF9E6" height="114" rx="2.5" ry="2.5" style="stroke:#181818;stroke-width:1;" width="1033" x="26" y="145"/><text fill="#000000" font-family="sans-serif" font-size="14" font-weight="bold" lengthAdjust="spacing" textLength="101.541" x="491.7295" y="161.6016">Planning Layer</text></g><!--cluster Control Layer--><g class="cluster" data-entity="Control Layer" data-source-line="58" data-uid="ent0028" id="cluster_Control Layer"><rect fill="#E6FFE6" height="114" rx="2.5" ry="2.5" style="stroke:#181818;stroke-width:1;" width="924" x="28" y="283"/><text fill="#000000" font-family="sans-serif" font-size="14" font-weight="bold" lengthAdjust="spacing" textLength="93.3379" x="443.3311" y="299.6016">Control Layer</text></g><!--cluster Sensing Layer--><g class="cluster" data-entity="Sensing Layer" data-source-line="75" data-uid="ent0038" id="cluster_Sensing Layer"><rect fill="#E6F3FF" height="114" rx="2.5" ry="2.5" style="stroke:#181818;stroke-width:1;" width="864" x="36" y="421"/><text fill="#000000" font-family="sans-serif" font-size="14" font-weight="bold" lengthAdjust="spacing" textLength="95.0947" x="420.4526" y="437.6016">Sensing Layer</text></g><!--cluster Hardware Layer--><g class="cluster" data-entity="Hardware Layer" data-source-line="92" data-uid="ent0048" id="cluster_Hardware Layer"><rect fill="#FFE6E6" height="114" rx="2.5" ry="2.5" style="stroke:#181818;stroke-width:1;" width="1308" x="7" y="559"/><text fill="#000000" font-family="sans-serif" font-size="14" font-weight="bold" lengthAdjust="spacing" textLength="107.9326" x="607.0337" y="575.6016">Hardware Layer</text></g><!--cluster FRAMEWORK_PKG--><g class="cluster" data-entity="FRAMEWORK_PKG" data-source-line="115" data-uid="ent0062" id="cluster_FRAMEWORK_PKG"><rect fill="#E6E6E6" height="114" rx="2.5" ry="2.5" style="stroke:#181818;stroke-width:1;" width="1064" x="1022" y="7"/><text fill="#000000" font-family="sans-serif" font-size="14" font-weight="bold" lengthAdjust="spacing" textLength="249.6416" x="1429.1792" y="23.6016">Spring WebFlux Layer (&#27178;&#26029;&#30340;&#38306;&#24515;&#20107;)</text></g><!--entity STATE--><g class="entity" data-entity="STATE" data-source-line="15" data-uid="ent0003" id="entity_STATE"><rect fill="#F1F1F1" height="48.3203" rx="2.5" ry="2.5" style="stroke:#181818;stroke-width:0.5;" width="130.9385" x="677.5" y="50.5"/><rect fill="#F1F1F1" height="10" style="stroke:#181818;stroke-width:0.5;" width="15" x="788.4385" y="55.5"/><rect fill="#F1F1F1" height="2" style="stroke:#181818;stroke-width:0.5;" width="4" x="786.4385" y="57.5"/><rect fill="#F1F1F1" height="2" style="stroke:#181818;stroke-width:0.5;" width="4" x="786.4385" y="61.5"/><text fill="#000000" font-family="sans-serif" font-size="14" lengthAdjust="spacing" textLength="90.9385" x="692.5" y="85.1016">StateManager</text></g><!--entity MISSION--><g class="entity" data-entity="MISSION" data-source-line="16" data-uid="ent0004" id="entity_MISSION"><rect fill="#F1F1F1" height="48.3203" rx="2.5" ry="2.5" style="stroke:#181818;stroke-width:0.5;" width="156.2861" x="339" y="50.5"/><rect fill="#F1F1F1" height="10" style="stroke:#181818;stroke-width:0.5;" width="15" x="475.2861" y="55.5"/><rect fill="#F1F1F1" height="2" style="stroke:#181818;stroke-width:0.5;" width="4" x="473.2861" y="57.5"/><rect fill="#F1F1F1" height="2" style="stroke:#181818;stroke-width:0.5;" width="4" x="473.2861" y="61.5"/><text fill="#000000" font-family="sans-serif" font-size="14" lengthAdjust="spacing" textLength="116.2861" x="354" y="85.1016">MissionController</text></g><!--entity SAFETY--><g class="entity" data-entity="SAFETY" data-source-line="17" data-uid="ent0005" id="entity_SAFETY"><rect fill="#F1F1F1" height="48.3203" rx="2.5" ry="2.5" style="stroke:#181818;stroke-width:0.5;" width="129.8926" x="65" y="50.5"/><rect fill="#F1F1F1" height="10" style="stroke:#181818;stroke-width:0.5;" width="15" x="174.8926" y="55.5"/><rect fill="#F1F1F1" height="2" style="stroke:#181818;stroke-width:0.5;" width="4" x="172.8926" y="57.5"/><rect fill="#F1F1F1" height="2" style="stroke:#181818;stroke-width:0.5;" width="4" x="172.8926" y="61.5"/><text fill="#000000" font-family="sans-serif" font-size="14" lengthAdjust="spacing" textLength="89.8926" x="80" y="85.1016">SafetyModule</text></g><g class="entity" data-entity="GMN6" data-source-line="20" data-uid="ent0007" id="entity_GMN6"><path d="M844,52.5 L844,70.5 L808.74,74.5 L844,78.5 L844,96.5234 A0,0 0 0 0 844,96.5234 L982,96.5234 A0,0 0 0 0 982,96.5234 L982,62.5 L972,52.5 L844,52.5 A0,0 0 0 0 844,52.5" fill="#FEFFDD" style="stroke:#181818;stroke-width:0.5;"/><path d="M972,52.5 L972,62.5 L982,62.5 L972,52.5" fill="#FEFFDD" style="stroke:#181818;stroke-width:0.5;"/><text fill="#000000" font-family="sans-serif" font-size="13" lengthAdjust="spacing" textLength="52" x="850" y="71.0586">&#29366;&#24907;&#31649;&#29702;</text><text fill="#000000" font-family="sans-serif" font-size="13" lengthAdjust="spacing" textLength="117" x="850" y="88.0703">&#24453;&#27231;/&#25506;&#32034;/&#26368;&#30701;&#36208;&#34892;</text></g><g class="entity" data-entity="GMN9" data-source-line="25" data-uid="ent0010" id="entity_GMN9"><path d="M530,52.5 L530,70.5 L495.23,74.5 L530,78.5 L530,96.5234 A0,0 0 0 0 530,96.5234 L642,96.5234 A0,0 0 0 0 642,96.5234 L642,62.5 L632,52.5 L530,52.5 A0,0 0 0 0 530,52.5" fill="#FEFFDD" style="stroke:#181818;stroke-width:0.5;"/><path d="M632,52.5 L632,62.5 L642,62.5 L632,52.5" fill="#FEFFDD" style="stroke:#181818;stroke-width:0.5;"/><text fill="#000000" font-family="sans-serif" font-size="13" lengthAdjust="spacing" textLength="91" x="536" y="71.0586">&#20840;&#20307;&#12501;&#12525;&#12540;&#21046;&#24481;</text><text fill="#000000" font-family="sans-serif" font-size="13" lengthAdjust="spacing" textLength="91" x="536" y="88.0703">&#12471;&#12540;&#12465;&#12531;&#12473;&#31649;&#29702;</text></g><g class="entity" data-entity="GMN12" data-source-line="30" data-uid="ent0013" id="entity_GMN12"><path d="M230.5,52.5 L230.5,70.5 L195.02,74.5 L230.5,78.5 L230.5,96.5234 A0,0 0 0 0 230.5,96.5234 L303.5,96.5234 A0,0 0 0 0 303.5,96.5234 L303.5,62.5 L293.5,52.5 L230.5,52.5 A0,0 0 0 0 230.5,52.5" fill="#FEFFDD" style="stroke:#181818;stroke-width:0.5;"/><path d="M293.5,52.5 L293.5,62.5 L303.5,62.5 L293.5,52.5" fill="#FEFFDD" style="stroke:#181818;stroke-width:0.5;"/><text fill="#000000" font-family="sans-serif" font-size="13" lengthAdjust="spacing" textLength="52" x="236.5" y="71.0586">&#30064;&#24120;&#26908;&#30693;</text><text fill="#000000" font-family="sans-serif" font-size="13" lengthAdjust="spacing" textLength="52" x="236.5" y="88.0703">&#32202;&#24613;&#20572;&#27490;</text></g><!--entity MAP--><g class="entity" data-entity="MAP" data-source-line="36" data-uid="ent0016" id="entity_MAP"><rect fill="#F1F1F1" height="48.3203" rx="2.5" ry="2.5" style="stroke:#181818;stroke-width:0.5;" width="147.7412" x="722" y="188.5"/><rect fill="#F1F1F1" height="10" style="stroke:#181818;stroke-width:0.5;" width="15" x="849.7412" y="193.5"/><rect fill="#F1F1F1" height="2" style="stroke:#181818;stroke-width:0.5;" width="4" x="847.7412" y="195.5"/><rect fill="#F1F1F1" height="2" style="stroke:#181818;stroke-width:0.5;" width="4" x="847.7412" y="199.5"/><text fill="#000000" font-family="sans-serif" font-size="14" lengthAdjust="spacing" textLength="107.7412" x="737" y="223.1016">MappingModule</text></g><!--entity EXPLORE--><g class="entity" data-entity="EXPLORE" data-source-line="37" data-uid="ent0017" id="entity_EXPLORE"><rect fill="#F1F1F1" height="48.3203" rx="2.5" ry="2.5" style="stroke:#181818;stroke-width:0.5;" width="164.5439" x="400.5" y="188.5"/><rect fill="#F1F1F1" height="10" style="stroke:#181818;stroke-width:0.5;" width="15" x="545.0439" y="193.5"/><rect fill="#F1F1F1" height="2" style="stroke:#181818;stroke-width:0.5;" width="4" x="543.0439" y="195.5"/><rect fill="#F1F1F1" height="2" style="stroke:#181818;stroke-width:0.5;" width="4" x="543.0439" y="199.5"/><text fill="#000000" font-family="sans-serif" font-size="14" lengthAdjust="spacing" textLength="124.5439" x="415.5" y="223.1016">ExplorationModule</text></g><!--entity PATH--><g class="entity" data-entity="PATH" data-source-line="38" data-uid="ent0018" id="entity_PATH"><rect fill="#F1F1F1" height="48.3203" rx="2.5" ry="2.5" style="stroke:#181818;stroke-width:0.5;" width="176.8486" x="41.5" y="188.5"/><rect fill="#F1F1F1" height="10" style="stroke:#181818;stroke-width:0.5;" width="15" x="198.3486" y="193.5"/><rect fill="#F1F1F1" height="2" style="stroke:#181818;stroke-width:0.5;" width="4" x="196.3486" y="195.5"/><rect fill="#F1F1F1" height="2" style="stroke:#181818;stroke-width:0.5;" width="4" x="196.3486" y="199.5"/><text fill="#000000" font-family="sans-serif" font-size="14" lengthAdjust="spacing" textLength="136.8486" x="56.5" y="223.1016">PathPlanningModule</text></g><g class="entity" data-entity="GMN19" data-source-line="41" data-uid="ent0020" id="entity_GMN19"><path d="M905,190.5 L905,208.5 L870.05,212.5 L905,216.5 L905,234.5234 A0,0 0 0 0 905,234.5234 L1043.1079,234.5234 A0,0 0 0 0 1043.1079,234.5234 L1043.1079,200.5 L1033.1079,190.5 L905,190.5 A0,0 0 0 0 905,190.5" fill="#FEFFDD" style="stroke:#181818;stroke-width:0.5;"/><path d="M1033.1079,190.5 L1033.1079,200.5 L1043.1079,200.5 L1033.1079,190.5" fill="#FEFFDD" style="stroke:#181818;stroke-width:0.5;"/><text fill="#000000" font-family="sans-serif" font-size="13" lengthAdjust="spacing" textLength="91" x="911" y="209.0586">&#36855;&#36335;&#12510;&#12483;&#12503;&#27083;&#31689;</text><text fill="#000000" font-family="sans-serif" font-size="13" lengthAdjust="spacing" textLength="117.1079" x="911" y="226.0703">16x16&#12464;&#12522;&#12483;&#12489;&#31649;&#29702;</text></g><g class="entity" data-entity="GMN22" data-source-line="46" data-uid="ent0023" id="entity_GMN22"><path d="M601,182 L601,208.5 L565.7,212.5 L601,216.5 L601,243.0352 A0,0 0 0 0 601,243.0352 L687,243.0352 A0,0 0 0 0 687,243.0352 L687,192 L677,182 L601,182 A0,0 0 0 0 601,182" fill="#FEFFDD" style="stroke:#181818;stroke-width:0.5;"/><path d="M677,182 L677,192 L687,192 L677,182" fill="#FEFFDD" style="stroke:#181818;stroke-width:0.5;"/><text fill="#000000" font-family="sans-serif" font-size="13" lengthAdjust="spacing" textLength="52" x="607" y="200.5586">&#25506;&#32034;&#25126;&#30053;</text><text fill="#000000" font-family="sans-serif" font-size="13" lengthAdjust="spacing" textLength="65" x="607" y="217.5703">&#24133;&#20778;&#20808;&#25506;&#32034;</text><text fill="#000000" font-family="sans-serif" font-size="13" lengthAdjust="spacing" textLength="39" x="607" y="234.582">&#36275;&#31435;&#27861;</text></g><g class="entity" data-entity="GMN25" data-source-line="52" data-uid="ent0026" id="entity_GMN25"><path d="M253,182 L253,208.5 L218.8,212.5 L253,216.5 L253,243.0352 A0,0 0 0 0 253,243.0352 L365.0952,243.0352 A0,0 0 0 0 365.0952,243.0352 L365.0952,192 L355.0952,182 L253,182 A0,0 0 0 0 253,182" fill="#FEFFDD" style="stroke:#181818;stroke-width:0.5;"/><path d="M355.0952,182 L355.0952,192 L365.0952,192 L355.0952,182" fill="#FEFFDD" style="stroke:#181818;stroke-width:0.5;"/><text fill="#000000" font-family="sans-serif" font-size="13" lengthAdjust="spacing" textLength="78" x="259" y="200.5586">&#26368;&#30701;&#32076;&#36335;&#35336;&#31639;</text><text fill="#000000" font-family="sans-serif" font-size="13" lengthAdjust="spacing" textLength="91.0952" x="259" y="217.5703">A*&#12450;&#12523;&#12468;&#12522;&#12474;&#12512;</text><text fill="#000000" font-family="sans-serif" font-size="13" lengthAdjust="spacing" textLength="91" x="259" y="234.582">&#12480;&#12452;&#12463;&#12473;&#12488;&#12521;&#27861;</text></g><!--entity MOTION--><g class="entity" data-entity="MOTION" data-source-line="59" data-uid="ent0029" id="entity_MOTION"><rect fill="#F1F1F1" height="48.3203" rx="2.5" ry="2.5" style="stroke:#181818;stroke-width:0.5;" width="185.9678" x="603" y="326.5"/><rect fill="#F1F1F1" height="10" style="stroke:#181818;stroke-width:0.5;" width="15" x="768.9678" y="331.5"/><rect fill="#F1F1F1" height="2" style="stroke:#181818;stroke-width:0.5;" width="4" x="766.9678" y="333.5"/><rect fill="#F1F1F1" height="2" style="stroke:#181818;stroke-width:0.5;" width="4" x="766.9678" y="337.5"/><text fill="#000000" font-family="sans-serif" font-size="14" lengthAdjust="spacing" textLength="145.9678" x="618" y="361.1016">MotionControlModule</text></g><!--entity FOLLOW--><g class="entity" data-entity="FOLLOW" data-source-line="60" data-uid="ent0030" id="entity_FOLLOW"><rect fill="#F1F1F1" height="48.3203" rx="2.5" ry="2.5" style="stroke:#181818;stroke-width:0.5;" width="182.7686" x="250.5" y="326.5"/><rect fill="#F1F1F1" height="10" style="stroke:#181818;stroke-width:0.5;" width="15" x="413.2686" y="331.5"/><rect fill="#F1F1F1" height="2" style="stroke:#181818;stroke-width:0.5;" width="4" x="411.2686" y="333.5"/><rect fill="#F1F1F1" height="2" style="stroke:#181818;stroke-width:0.5;" width="4" x="411.2686" y="337.5"/><text fill="#000000" font-family="sans-serif" font-size="14" lengthAdjust="spacing" textLength="142.7686" x="265.5" y="361.1016">PathFollowingModule</text></g><!--entity STAB--><g class="entity" data-entity="STAB" data-source-line="61" data-uid="ent0031" id="entity_STAB"><rect fill="#F1F1F1" height="48.3203" rx="2.5" ry="2.5" style="stroke:#181818;stroke-width:0.5;" width="170.6895" x="44.5" y="326.5"/><rect fill="#F1F1F1" height="10" style="stroke:#181818;stroke-width:0.5;" width="15" x="195.1895" y="331.5"/><rect fill="#F1F1F1" height="2" style="stroke:#181818;stroke-width:0.5;" width="4" x="193.1895" y="333.5"/><rect fill="#F1F1F1" height="2" style="stroke:#181818;stroke-width:0.5;" width="4" x="193.1895" y="337.5"/><text fill="#000000" font-family="sans-serif" font-size="14" lengthAdjust="spacing" textLength="130.6895" x="59.5" y="361.1016">StabilizationModule</text></g><g class="entity" data-entity="GMN32" data-source-line="64" data-uid="ent0033" id="entity_GMN32"><path d="M824,320 L824,346.5 L789.08,350.5 L824,354.5 L824,381.0352 A0,0 0 0 0 824,381.0352 L936,381.0352 A0,0 0 0 0 936,381.0352 L936,330 L926,320 L824,320 A0,0 0 0 0 824,320" fill="#FEFFDD" style="stroke:#181818;stroke-width:0.5;"/><path d="M926,320 L926,330 L936,330 L926,320" fill="#FEFFDD" style="stroke:#181818;stroke-width:0.5;"/><text fill="#000000" font-family="sans-serif" font-size="13" lengthAdjust="spacing" textLength="91" x="830" y="338.5586">&#12458;&#12512;&#12491;&#12507;&#12452;&#12540;&#12523;</text><text fill="#000000" font-family="sans-serif" font-size="13" lengthAdjust="spacing" textLength="78" x="830" y="355.5703">&#36870;&#36939;&#21205;&#23398;&#35336;&#31639;</text><text fill="#000000" font-family="sans-serif" font-size="13" lengthAdjust="spacing" textLength="73.1885" x="830" y="372.582">3&#36650;&#29420;&#31435;&#21046;&#24481;</text></g><g class="entity" data-entity="GMN35" data-source-line="70" data-uid="ent0036" id="entity_GMN35"><path d="M468.5,328.5 L468.5,346.5 L433.78,350.5 L468.5,354.5 L468.5,372.5234 A0,0 0 0 0 468.5,372.5234 L567.5,372.5234 A0,0 0 0 0 567.5,372.5234 L567.5,338.5 L557.5,328.5 L468.5,328.5 A0,0 0 0 0 468.5,328.5" fill="#FEFFDD" style="stroke:#181818;stroke-width:0.5;"/><path d="M557.5,328.5 L557.5,338.5 L567.5,338.5 L557.5,328.5" fill="#FEFFDD" style="stroke:#181818;stroke-width:0.5;"/><text fill="#000000" font-family="sans-serif" font-size="13" lengthAdjust="spacing" textLength="78" x="474.5" y="347.0586">&#32076;&#36335;&#36861;&#24467;&#21046;&#24481;</text><text fill="#000000" font-family="sans-serif" font-size="13" lengthAdjust="spacing" textLength="47.6709" x="474.5" y="364.0703">PID&#21046;&#24481;</text></g><!--entity VISION--><g class="entity" data-entity="VISION" data-source-line="76" data-uid="ent0039" id="entity_VISION"><rect fill="#F1F1F1" height="48.3203" rx="2.5" ry="2.5" style="stroke:#181818;stroke-width:0.5;" width="129.8789" x="633" y="464.5"/><rect fill="#F1F1F1" height="10" style="stroke:#181818;stroke-width:0.5;" width="15" x="742.8789" y="469.5"/><rect fill="#F1F1F1" height="2" style="stroke:#181818;stroke-width:0.5;" width="4" x="740.8789" y="471.5"/><rect fill="#F1F1F1" height="2" style="stroke:#181818;stroke-width:0.5;" width="4" x="740.8789" y="475.5"/><text fill="#000000" font-family="sans-serif" font-size="14" lengthAdjust="spacing" textLength="89.8789" x="648" y="499.1016">VisionModule</text></g><!--entity ODOM--><g class="entity" data-entity="ODOM" data-source-line="77" data-uid="ent0040" id="entity_ODOM"><rect fill="#F1F1F1" height="48.3203" rx="2.5" ry="2.5" style="stroke:#181818;stroke-width:0.5;" width="155.4453" x="52.5" y="464.5"/><rect fill="#F1F1F1" height="10" style="stroke:#181818;stroke-width:0.5;" width="15" x="187.9453" y="469.5"/><rect fill="#F1F1F1" height="2" style="stroke:#181818;stroke-width:0.5;" width="4" x="185.9453" y="471.5"/><rect fill="#F1F1F1" height="2" style="stroke:#181818;stroke-width:0.5;" width="4" x="185.9453" y="475.5"/><text fill="#000000" font-family="sans-serif" font-size="14" lengthAdjust="spacing" textLength="115.4453" x="67.5" y="499.1016">OdometryModule</text></g><!--entity LOCAL--><g class="entity" data-entity="LOCAL" data-source-line="78" data-uid="ent0041" id="entity_LOCAL"><rect fill="#F1F1F1" height="48.3203" rx="2.5" ry="2.5" style="stroke:#181818;stroke-width:0.5;" width="168.5703" x="242.5" y="464.5"/><rect fill="#F1F1F1" height="10" style="stroke:#181818;stroke-width:0.5;" width="15" x="391.0703" y="469.5"/><rect fill="#F1F1F1" height="2" style="stroke:#181818;stroke-width:0.5;" width="4" x="389.0703" y="471.5"/><rect fill="#F1F1F1" height="2" style="stroke:#181818;stroke-width:0.5;" width="4" x="389.0703" y="475.5"/><text fill="#000000" font-family="sans-serif" font-size="14" lengthAdjust="spacing" textLength="128.5703" x="257.5" y="499.1016">LocalizationModule</text></g><g class="entity" data-entity="GMN42" data-source-line="81" data-uid="ent0043" id="entity_GMN42"><path d="M798,458 L798,484.5 L763.08,488.5 L798,492.5 L798,519.0352 A0,0 0 0 0 798,519.0352 L884,519.0352 A0,0 0 0 0 884,519.0352 L884,468 L874,458 L798,458 A0,0 0 0 0 798,458" fill="#FEFFDD" style="stroke:#181818;stroke-width:0.5;"/><path d="M874,458 L874,468 L884,468 L874,458" fill="#FEFFDD" style="stroke:#181818;stroke-width:0.5;"/><text fill="#000000" font-family="sans-serif" font-size="13" lengthAdjust="spacing" textLength="52" x="804" y="476.5586">&#30011;&#20687;&#20966;&#29702;</text><text fill="#000000" font-family="sans-serif" font-size="13" lengthAdjust="spacing" textLength="39" x="804" y="493.5703">&#22721;&#26908;&#20986;</text><text fill="#000000" font-family="sans-serif" font-size="13" lengthAdjust="spacing" textLength="65" x="804" y="510.582">&#12456;&#12483;&#12472;&#25277;&#20986;</text></g><g class="entity" data-entity="GMN45" data-source-line="87" data-uid="ent0046" id="entity_GMN45"><path d="M446.5,466.5 L446.5,484.5 L411.55,488.5 L446.5,492.5 L446.5,510.5234 A0,0 0 0 0 446.5,510.5234 L597.5,510.5234 A0,0 0 0 0 597.5,510.5234 L597.5,476.5 L587.5,466.5 L446.5,466.5 A0,0 0 0 0 446.5,466.5" fill="#FEFFDD" style="stroke:#181818;stroke-width:0.5;"/><path d="M587.5,466.5 L587.5,476.5 L597.5,476.5 L587.5,466.5" fill="#FEFFDD" style="stroke:#181818;stroke-width:0.5;"/><text fill="#000000" font-family="sans-serif" font-size="13" lengthAdjust="spacing" textLength="130" x="452.5" y="485.0586">&#12475;&#12531;&#12469;&#12540;&#12501;&#12517;&#12540;&#12472;&#12519;&#12531;</text><text fill="#000000" font-family="sans-serif" font-size="13" lengthAdjust="spacing" textLength="91" x="452.5" y="502.0703">&#20301;&#32622;&#12539;&#23039;&#21218;&#25512;&#23450;</text></g><!--entity CAM--><g class="entity" data-entity="CAM" data-source-line="93" data-uid="ent0049" id="entity_CAM"><rect fill="#F1F1F1" height="48.3203" rx="2.5" ry="2.5" style="stroke:#181818;stroke-width:0.5;" width="140.9053" x="1010.5" y="602.5"/><rect fill="#F1F1F1" height="10" style="stroke:#181818;stroke-width:0.5;" width="15" x="1131.4053" y="607.5"/><rect fill="#F1F1F1" height="2" style="stroke:#181818;stroke-width:0.5;" width="4" x="1129.4053" y="609.5"/><rect fill="#F1F1F1" height="2" style="stroke:#181818;stroke-width:0.5;" width="4" x="1129.4053" y="613.5"/><text fill="#000000" font-family="sans-serif" font-size="14" lengthAdjust="spacing" textLength="100.9053" x="1025.5" y="637.1016">CameraModule</text></g><!--entity IMU--><g class="entity" data-entity="IMU" data-source-line="94" data-uid="ent0050" id="entity_IMU"><rect fill="#F1F1F1" height="48.3203" rx="2.5" ry="2.5" style="stroke:#181818;stroke-width:0.5;" width="117.1504" x="672.5" y="602.5"/><rect fill="#F1F1F1" height="10" style="stroke:#181818;stroke-width:0.5;" width="15" x="769.6504" y="607.5"/><rect fill="#F1F1F1" height="2" style="stroke:#181818;stroke-width:0.5;" width="4" x="767.6504" y="609.5"/><rect fill="#F1F1F1" height="2" style="stroke:#181818;stroke-width:0.5;" width="4" x="767.6504" y="613.5"/><text fill="#000000" font-family="sans-serif" font-size="14" lengthAdjust="spacing" textLength="77.1504" x="687.5" y="637.1016">IMUModule</text></g><!--entity MOTOR--><g class="entity" data-entity="MOTOR" data-source-line="95" data-uid="ent0051" id="entity_MOTOR"><rect fill="#F1F1F1" height="48.3203" rx="2.5" ry="2.5" style="stroke:#181818;stroke-width:0.5;" width="178.9131" x="272.5" y="602.5"/><rect fill="#F1F1F1" height="10" style="stroke:#181818;stroke-width:0.5;" width="15" x="431.4131" y="607.5"/><rect fill="#F1F1F1" height="2" style="stroke:#181818;stroke-width:0.5;" width="4" x="429.4131" y="609.5"/><rect fill="#F1F1F1" height="2" style="stroke:#181818;stroke-width:0.5;" width="4" x="429.4131" y="613.5"/><text fill="#000000" font-family="sans-serif" font-size="14" lengthAdjust="spacing" textLength="138.9131" x="287.5" y="637.1016">MotorControlModule</text></g><!--entity HAL--><g class="entity" data-entity="HAL" data-source-line="96" data-uid="ent0052" id="entity_HAL"><rect fill="#F1F1F1" height="48.3203" rx="2.5" ry="2.5" style="stroke:#181818;stroke-width:0.5;" width="213.585" x="23" y="602.5"/><rect fill="#F1F1F1" height="10" style="stroke:#181818;stroke-width:0.5;" width="15" x="216.585" y="607.5"/><rect fill="#F1F1F1" height="2" style="stroke:#181818;stroke-width:0.5;" width="4" x="214.585" y="609.5"/><rect fill="#F1F1F1" height="2" style="stroke:#181818;stroke-width:0.5;" width="4" x="214.585" y="613.5"/><text fill="#000000" font-family="sans-serif" font-size="14" lengthAdjust="spacing" textLength="173.585" x="38" y="637.1016">HardwareAbstractionLayer</text></g><g class="entity" data-entity="GMN53" data-source-line="99" data-uid="ent0054" id="entity_GMN53"><path d="M1187,604.5 L1187,622.5 L1151.56,626.5 L1187,630.5 L1187,648.5234 A0,0 0 0 0 1187,648.5234 L1299,648.5234 A0,0 0 0 0 1299,648.5234 L1299,614.5 L1289,604.5 L1187,604.5 A0,0 0 0 0 1187,604.5" fill="#FEFFDD" style="stroke:#181818;stroke-width:0.5;"/><path d="M1289,604.5 L1289,614.5 L1299,614.5 L1289,604.5" fill="#FEFFDD" style="stroke:#181818;stroke-width:0.5;"/><text fill="#000000" font-family="sans-serif" font-size="13" lengthAdjust="spacing" textLength="91" x="1193" y="623.0586">&#12459;&#12513;&#12521;&#30011;&#20687;&#21462;&#24471;</text><text fill="#000000" font-family="sans-serif" font-size="13" lengthAdjust="spacing" textLength="77.3906" x="1193" y="640.0703">OpenCV&#36899;&#25658;</text></g><g class="entity" data-entity="GMN56" data-source-line="104" data-uid="ent0057" id="entity_GMN56"><path d="M824.5,604.5 L824.5,622.5 L789.75,626.5 L824.5,630.5 L824.5,648.5234 A0,0 0 0 0 824.5,648.5234 L975.5,648.5234 A0,0 0 0 0 975.5,648.5234 L975.5,614.5 L965.5,604.5 L824.5,604.5 A0,0 0 0 0 824.5,604.5" fill="#FEFFDD" style="stroke:#181818;stroke-width:0.5;"/><path d="M965.5,604.5 L965.5,614.5 L975.5,614.5 L965.5,604.5" fill="#FEFFDD" style="stroke:#181818;stroke-width:0.5;"/><text fill="#000000" font-family="sans-serif" font-size="13" lengthAdjust="spacing" textLength="73.3091" x="830.5" y="623.0586">I2C/SPI&#36890;&#20449;</text><text fill="#000000" font-family="sans-serif" font-size="13" lengthAdjust="spacing" textLength="130" x="830.5" y="640.0703">&#21152;&#36895;&#24230;&#12539;&#12472;&#12515;&#12452;&#12525;&#21462;&#24471;</text></g><g class="entity" data-entity="GMN59" data-source-line="109" data-uid="ent0060" id="entity_GMN59"><path d="M486.5,596 L486.5,622.5 L451.84,626.5 L486.5,630.5 L486.5,657.0352 A0,0 0 0 0 486.5,657.0352 L637.5,657.0352 A0,0 0 0 0 637.5,657.0352 L637.5,606 L627.5,596 L486.5,596 A0,0 0 0 0 486.5,596" fill="#FEFFDD" style="stroke:#181818;stroke-width:0.5;"/><path d="M627.5,596 L627.5,606 L637.5,606 L627.5,596" fill="#FEFFDD" style="stroke:#181818;stroke-width:0.5;"/><text fill="#000000" font-family="sans-serif" font-size="13" lengthAdjust="spacing" textLength="57.9795" x="492.5" y="614.5586">GPIO&#21046;&#24481;</text><text fill="#000000" font-family="sans-serif" font-size="13" lengthAdjust="spacing" textLength="130" x="492.5" y="631.5703">&#12473;&#12486;&#12483;&#12500;&#12531;&#12464;&#12514;&#12540;&#12479;&#12540;</text><text fill="#000000" font-family="sans-serif" font-size="13" lengthAdjust="spacing" textLength="65" x="492.5" y="648.582">&#12497;&#12523;&#12473;&#29983;&#25104;</text></g><!--entity EVENT--><g class="entity" data-entity="EVENT" data-source-line="116" data-uid="ent0063" id="entity_EVENT"><rect fill="#F1F1F1" height="48.3203" rx="2.5" ry="2.5" style="stroke:#181818;stroke-width:0.5;" width="156.293" x="1725" y="50.5"/><rect fill="#F1F1F1" height="10" style="stroke:#181818;stroke-width:0.5;" width="15" x="1861.293" y="55.5"/><rect fill="#F1F1F1" height="2" style="stroke:#181818;stroke-width:0.5;" width="4" x="1859.293" y="57.5"/><rect fill="#F1F1F1" height="2" style="stroke:#181818;stroke-width:0.5;" width="4" x="1859.293" y="61.5"/><text fill="#000000" font-family="sans-serif" font-size="14" lengthAdjust="spacing" textLength="116.293" x="1740" y="85.1016">ReactiveEventBus</text></g><!--entity API--><g class="entity" data-entity="API" data-source-line="117" data-uid="ent0064" id="entity_API"><rect fill="#F1F1F1" height="48.3203" rx="2.5" ry="2.5" style="stroke:#181818;stroke-width:0.5;" width="133.4746" x="1396.5" y="50.5"/><rect fill="#F1F1F1" height="10" style="stroke:#181818;stroke-width:0.5;" width="15" x="1509.9746" y="55.5"/><rect fill="#F1F1F1" height="2" style="stroke:#181818;stroke-width:0.5;" width="4" x="1507.9746" y="57.5"/><rect fill="#F1F1F1" height="2" style="stroke:#181818;stroke-width:0.5;" width="4" x="1507.9746" y="61.5"/><text fill="#000000" font-family="sans-serif" font-size="14" lengthAdjust="spacing" textLength="93.4746" x="1411.5" y="85.1016">MonitoringAPI</text></g><!--entity CONFIG--><g class="entity" data-entity="CONFIG" data-source-line="118" data-uid="ent0065" id="entity_CONFIG"><rect fill="#F1F1F1" height="48.3203" rx="2.5" ry="2.5" style="stroke:#181818;stroke-width:0.5;" width="177.2725" x="1037.5" y="50.5"/><rect fill="#F1F1F1" height="10" style="stroke:#181818;stroke-width:0.5;" width="15" x="1194.7725" y="55.5"/><rect fill="#F1F1F1" height="2" style="stroke:#181818;stroke-width:0.5;" width="4" x="1192.7725" y="57.5"/><rect fill="#F1F1F1" height="2" style="stroke:#181818;stroke-width:0.5;" width="4" x="1192.7725" y="61.5"/><text fill="#000000" font-family="sans-serif" font-size="14" lengthAdjust="spacing" textLength="137.2725" x="1052.5" y="85.1016">ConfigurationService</text></g><g class="entity" data-entity="GMN66" data-source-line="121" data-uid="ent0067" id="entity_GMN66"><path d="M1916.5,44 L1916.5,70.5 L1881.3,74.5 L1916.5,78.5 L1916.5,105.0352 A0,0 0 0 0 1916.5,105.0352 L2069.4297,105.0352 A0,0 0 0 0 2069.4297,105.0352 L2069.4297,54 L2059.4297,44 L1916.5,44 A0,0 0 0 0 1916.5,44" fill="#FEFFDD" style="stroke:#181818;stroke-width:0.5;"/><path d="M2059.4297,44 L2059.4297,54 L2069.4297,54 L2059.4297,44" fill="#FEFFDD" style="stroke:#181818;stroke-width:0.5;"/><text fill="#000000" font-family="sans-serif" font-size="13" lengthAdjust="spacing" textLength="73.2012" x="1922.5" y="62.5586">Reactor&#22522;&#30436;</text><text fill="#000000" font-family="sans-serif" font-size="13" lengthAdjust="spacing" textLength="117" x="1922.5" y="79.5703">&#38750;&#21516;&#26399;&#12452;&#12505;&#12531;&#12488;&#20966;&#29702;</text><text fill="#000000" font-family="sans-serif" font-size="13" lengthAdjust="spacing" textLength="131.9297" x="1922.5" y="96.582">Flux/Mono&#12473;&#12488;&#12522;&#12540;&#12512;</text></g><g class="entity" data-entity="GMN69" data-source-line="127" data-uid="ent0070" id="entity_GMN69"><path d="M1564.5,44 L1564.5,70.5 L1529.62,74.5 L1564.5,78.5 L1564.5,105.0352 A0,0 0 0 0 1564.5,105.0352 L1689.5,105.0352 A0,0 0 0 0 1689.5,105.0352 L1689.5,54 L1679.5,44 L1564.5,44 A0,0 0 0 0 1564.5,44" fill="#FEFFDD" style="stroke:#181818;stroke-width:0.5;"/><path d="M1679.5,44 L1679.5,54 L1689.5,54 L1679.5,44" fill="#FEFFDD" style="stroke:#181818;stroke-width:0.5;"/><text fill="#000000" font-family="sans-serif" font-size="13" lengthAdjust="spacing" textLength="55.0723" x="1570.5" y="62.5586">REST API</text><text fill="#000000" font-family="sans-serif" font-size="13" lengthAdjust="spacing" textLength="94.7324" x="1570.5" y="79.5703">WebSocket&#37197;&#20449;</text><text fill="#000000" font-family="sans-serif" font-size="13" lengthAdjust="spacing" textLength="104" x="1570.5" y="96.582">&#38283;&#30330;&#12539;&#12487;&#12496;&#12483;&#12464;&#29992;</text></g><g class="entity" data-entity="GMN72" data-source-line="133" data-uid="ent0073" id="entity_GMN72"><path d="M1249,52.5 L1249,70.5 L1214.8,74.5 L1249,78.5 L1249,96.5234 A0,0 0 0 0 1249,96.5234 L1361,96.5234 A0,0 0 0 0 1361,96.5234 L1361,62.5 L1351,52.5 L1249,52.5 A0,0 0 0 0 1249,52.5" fill="#FEFFDD" style="stroke:#181818;stroke-width:0.5;"/><path d="M1351,52.5 L1351,62.5 L1361,62.5 L1351,52.5" fill="#FEFFDD" style="stroke:#181818;stroke-width:0.5;"/><text fill="#000000" font-family="sans-serif" font-size="13" lengthAdjust="spacing" textLength="91" x="1255" y="71.0586">&#12497;&#12521;&#12513;&#12540;&#12479;&#31649;&#29702;</text><text fill="#000000" font-family="sans-serif" font-size="13" lengthAdjust="spacing" textLength="78" x="1255" y="88.0703">&#35373;&#23450;&#12398;&#27704;&#32154;&#21270;</text></g><!--link SAFETY to PATH--><!--link PATH to STAB--><!--link STAB to ODOM--><!--link ODOM to HAL--><!--SRC=[ZLPRJzj857xFhvZIX-wkLA4k4jA-hEG66w8cSPHaOLTLjJB901R1ZXnpwsgba2cG4jgoAb2LiWs4Mu0DiA9SMyYF6Mmd_sB7OySO1z2-ECgSC-US-Rvplfa7ITWdIX1qCT6E7YRAWeSSnxQpxRu7jY76XcE1S2TuoBPpRHpdhFlvS3pA1-awv_AF19bmc6xWEEudbw63zGTY0JvC36tc7iV0HPaGsyD7dvcnQ6vVPb2Kqe8Y386qa1WK-c5C7Kz1eC24AaZzAUZpFGASh2GW686AAYQ454W9u_AmwdkKWdqgK6MWYFq3AaYAvXvHbdm-En9ewO09CKEMG50OXqhBTM5_-018o4DfMOAI2fx7L4658K4YcvGNGCY0M9o9ipTzGcB63EMN9LMHKodRCHI8cG4zuOG-g8w7vEHm2bhX68wD_-OZNfAiGhjWkSz90u0nSwnF5eozLMDkYYvebvFwTh5LVriolfHQzUMiKQpKZWvggxF43AKaZTGSyReU4cAoV7Nn7gC5Z2eOVTFonzhbAhNWt0bPmBb_CJh4kJCdxTrnxHFGKXSEjDDJVNtPA6vO2oSpUdP3crZMAoLta3zTJ4HIWYI9Kd-32QTtF4o4X7IQkBcm2p6HcoxiM3ebAu99jSkD_JKIvACUpYA2Ej38xFADCF6kMw2ZYG2eLKzg9_iOVSO8OVH1toeO-w-fvKdxs9Dsd3l0Q8VQNlyFuAxh0i0YKyzl6WiMSjhPfFPgHvlCMnOh_V6XiLlG3nVk3KkFG6FIpZ2EPadDjNBUsFj0bvaVSAw4qIxEVJ6hpPrZj69HZx8ujuvp-uHtZF8ORNjIkLcpcxr1MaC8l9p9wlLWk9dZuqsZOJB2aV6HHszIml718D_JD9MzOafywQMQJCtJM-XhP3FRc_2pWb41eq_cOKcherrggMUdwXC5hR2WLJPTQBNLlkqOXNy8xiwGt0szKohfV0lsweLs-TurNf50HtCSDwunA6LSmz0GNW-ktLIxN0Vl3ZHh3P-KXw2gkDM6x-13Dvs2Cj7DPY23l9y9DX_GIKCEEFzLG- -qwKr7bjOcoEHhq-Ssq6Lp47Ad-io5jNOtR5OoQzTNgZj7b1YYJXjKZ4unsYBhrENguerniOVHLsshgXLA-jkojhTq5vfTWf8S5HJOWDEvu3nu-eKXg0Yky_iP3qw1q2ykC_dNrEYoSckVyz6RdesIcDwCgWZqMgB5KV-ksq2tQZ71sSLebOob3VsxHUtIQb8-3IL_Tpsxfi_TZxHLDm217_sjiKYWdbswgbgDgSsirBD5xNoJ84i1NwFZKN6ot7Ens8S4e3CIu6_S9KH7fgWUpbDQYJoMAA5LyhKrvoygHMV6V57Fpzqv5Md578eUsCkbXiSiDi5tUdb7NwmOIw_gYoMjYgxE2z-tKCLel2L-ZpphTBqiFAH7eGd_26H7oD-dmndhikXcmt4ljv98s2K5C940TIA_dlwHfJwnVzYwUc9G6H4JTX_nOIxGUOlsssa0e5N8YbOyDpwjMqhqzsTjRbPVBb86Ffh8eRnhq4m8MabHSaEdT-YqhDnBabKoISV6uiuVWcTCJWn2jJxvfj48zSM2yV7Sx08qZT4S7U83OxvyRtJxc0wZsxHHJQ9TxvPQkK965K_iwGUdnl6IDhleeRlfEIShIKY97nNL0I1A8qJsUiaJC25BalMYo_YivmTu_7n0J2QXz28fZqgFVxPkGVFJPA5tXFbfib1rD3zD5dCk_mC0]--></g></svg>